<svg xmlns="http://www.w3.org/2000/svg" width="29.935" height="29.936" viewBox="0 0 29.935 29.936"><defs><style>.a{fill:#fff;}</style></defs><g transform="translate(-1779.867 -54)"><path d="M1804.448,83.423a90.465,90.465,0,0,1-19.227,0,5.452,5.452,0,0,1-4.842-4.842,90.468,90.468,0,0,1,0-19.227,5.453,5.453,0,0,1,4.842-4.842,90.466,90.466,0,0,1,19.227,0,5.453,5.453,0,0,1,4.842,4.842,90.468,90.468,0,0,1,0,19.227,5.452,5.452,0,0,1-4.842,4.842Z"/><rect class="a" width="3.964" height="12.289" transform="translate(1785.793 65.957)"/><path class="a" d="M1800.29,65.692a5.146,5.146,0,0,0-4.5,2.106V65.957h-3.653V78.245h3.964V72.073c0-1.784.821-3.171,2.379-3.171s1.812,1.727,1.812,3.85v5.493h3.964V69.656a3.964,3.964,0,0,0-3.964-3.964Z"/><path class="a" d="M1790.134,62.05a2.359,2.359,0,1,1-2.359-2.36A2.359,2.359,0,0,1,1790.134,62.05Z"/></g></svg>