<svg xmlns="http://www.w3.org/2000/svg" width="24.478" height="24.478" viewBox="0 0 24.478 24.478"><defs><style>.a{fill:#383838;}.b{fill:#fff;}</style></defs><g transform="translate(-1367.786 -4890.5)"><g transform="translate(-2876 -382)"><path class="a" d="M881.385,3767.058a73.928,73.928,0,0,1-15.722,0,4.457,4.457,0,0,1-3.959-3.959,74.033,74.033,0,0,1,0-15.721,4.458,4.458,0,0,1,3.959-3.959,73.928,73.928,0,0,1,15.722,0,4.458,4.458,0,0,1,3.959,3.959,73.9,73.9,0,0,1,0,15.721,4.457,4.457,0,0,1-3.959,3.959Z" transform="translate(3382.5 1529.5)"/><rect class="b" width="3.241" height="10.048" transform="translate(4248.631 5282.277)"/><path class="b" d="M877.985,3752.561a4.206,4.206,0,0,0-3.681,1.722v-1.506h-2.987v10.048h3.241v-5.047c0-1.459.672-2.593,1.945-2.593s1.482,1.412,1.482,3.149v4.491h3.241V3755.8a3.241,3.241,0,0,0-3.241-3.241Z" transform="translate(3382.5 1529.5)"/><path class="b" d="M869.681,3749.582a1.93,1.93,0,1,1-1.93-1.93A1.93,1.93,0,0,1,869.681,3749.582Z" transform="translate(3382.5 1529.5)"/></g></g></svg>