<svg xmlns="http://www.w3.org/2000/svg" width="120.149" height="120.149" viewBox="0 0 120.149 120.149"><defs><style>.a{fill:#fff;}.b,.f{fill:none;}.b{stroke:#b9b8b8;stroke-linejoin:round;stroke-width:2px;}.c{fill:#b9b8b8;}.d{fill:#2588ad;}.e{stroke:none;}</style></defs><g transform="translate(2 2)"><circle class="a" cx="58.075" cy="58.075" r="58.075"/><g class="b"><circle class="e" cx="58.075" cy="58.075" r="58.075"/><circle class="f" cx="58.075" cy="58.075" r="59.075"/></g><g transform="translate(26.447 29.187)"><path class="c" d="M362.382,262.834a4.075,4.075,0,0,0-1.761-.166q-8.346-.014-16.692-.007a10.549,10.549,0,0,1-1.191-.019c-.871-.1-1.08-.342-1.132-1.233-.011-.2,0-.4,0-.6q0-21.237-.007-42.474a4.015,4.015,0,0,1,1.124-3.111,3.653,3.653,0,0,1,2.526-1.09c.248-.008.5,0,.745,0q27.272,0,54.545-.008a4.2,4.2,0,0,1,2.565.583,3.763,3.763,0,0,1,1.749,3.251q-.044,21.534-.02,43.07c0,1.475-.158,1.624-1.791,1.627q-8.718.015-17.437,0h-1.447a18.481,18.481,0,0,0,1.012,3.282c.373,1.181.847,2.33,1.249,3.5a1.28,1.28,0,0,0,1.427,1.005c.942-.051,1.887-.014,2.831,0,.421,0,.839.1.859.612.019.462-.338.709-.751.789a5.574,5.574,0,0,1-1.038.052q-16.542,0-33.085,0a6.672,6.672,0,0,1-.892-.032.743.743,0,0,1-.733-.782c0-.54.382-.638.813-.64.944-.007,1.888-.007,2.831-.008.458,0,.917-.014,1.129-.525C360.769,267.591,361.619,265.229,362.382,262.834Zm10.873-1.646h28.155c.348,0,.7.014,1.043,0,.976-.053,1.063-.147,1.117-1.157.01-.2,0-.4,0-.6q0-20.11,0-40.222a5.523,5.523,0,0,0-.188-1.766A2.381,2.381,0,0,0,401,215.606c-.248-.009-.5,0-.745,0H346.325c-.348,0-.7-.02-1.043.011a2.274,2.274,0,0,0-2.2,2.331c-.011.3,0,.6,0,.894v40.52c0,.3.021.6,0,.893-.055.722.3.983.979.938.346-.023.695,0,1.042,0Zm-11.962,9.059a4.156,4.156,0,0,0,1.813.189q8.475.013,16.951.005c1.338,0,2.677.015,4.014-.005,1.1-.017,1.151-.074.8-1.089-.656-1.867-1.354-3.719-2.029-5.58-.469-1.293-.464-1.3-1.9-1.3q-7.285,0-14.572,0c-.446,0-.892.014-1.338,0a1.05,1.05,0,0,0-1.151.731C363.032,265.513,362.18,267.827,361.294,270.247Z" transform="translate(-341.597 -214.128)"/><path class="a" d="M373.524,261.456H345.369c-.348,0-.7-.02-1.042,0-.681.045-1.034-.217-.979-.938.023-.3,0-.6,0-.893v-40.52c0-.3-.008-.6,0-.894a2.274,2.274,0,0,1,2.2-2.331c.345-.031.7-.011,1.043-.011h53.927c.249,0,.5-.006.745,0a2.381,2.381,0,0,1,2.388,1.837,5.523,5.523,0,0,1,.188,1.766q0,20.112,0,40.222c0,.2.008.4,0,.6-.053,1.01-.14,1.1-1.117,1.157-.347.019-.7,0-1.043,0Zm.075-4.77h25.782c.3,0,.6,0,.894,0,1.738-.011,1.789-.058,1.8-1.728.005-.894,0-1.788,0-2.683q0-16.392,0-32.785c0-1.621-.146-1.756-1.793-1.781-.15,0-.3,0-.448,0H347.079c-.3,0-.6-.018-.894.007-.92.077-1.2.365-1.276,1.3-.023.3-.006.6-.006.893q0,17.287,0,34.575c0,.348-.011.7.01,1.043a1.094,1.094,0,0,0,1.117,1.148c.4.025.8.014,1.192.014Zm-.126,2.992h3.278q2.31,0,4.619-.005c.479,0,.955-.11.986-.675.036-.673-.483-.774-1.018-.783l-.3,0q-7.526,0-15.051,0c-.584,0-1.368-.11-1.35.742.018.834.8.715,1.384.717C368.506,259.682,370.99,259.677,373.474,259.677Z" transform="translate(-341.866 -214.395)"/><path class="a" d="M364.88,279.048c.887-2.419,1.738-4.734,2.582-7.052a1.05,1.05,0,0,1,1.151-.731c.446.014.892,0,1.338,0q7.286,0,14.572,0c1.436,0,1.432.009,1.9,1.3.675,1.861,1.374,3.713,2.029,5.58.356,1.015.305,1.072-.8,1.089-1.337.02-2.676.005-4.014.005q-8.477,0-16.951-.005A4.156,4.156,0,0,1,364.88,279.048Z" transform="translate(-345.183 -222.929)"/><path class="c" d="M373.883,257.02H347.5c-.4,0-.8.012-1.192-.014a1.094,1.094,0,0,1-1.117-1.148c-.021-.347-.01-.7-.01-1.043q0-17.287,0-34.575c0-.3-.017-.6.006-.893.074-.933.356-1.221,1.276-1.3.3-.025.6-.007.894-.007h52.755c.149,0,.3,0,.448,0,1.646.025,1.793.16,1.793,1.781q.005,16.392,0,32.785c0,.894,0,1.788,0,2.683-.01,1.67-.062,1.717-1.8,1.728-.3,0-.6,0-.894,0Zm-.138-37.5H348.872c-.348,0-.7-.012-1.042,0-1.068.047-1.134.119-1.178,1.241-.01.248,0,.5,0,.744v32.021c0,.3-.013.6,0,.893.056.986.139,1.066,1.153,1.118.248.013.5,0,.744,0h50.639c.3,0,.6-.013.893,0,.556.019.827-.232.808-.8-.01-.3,0-.6,0-.894q0-16.309,0-32.617c0-.3-.013-.6,0-.894.021-.551-.214-.833-.786-.816-.4.012-.794,0-1.192,0Z" transform="translate(-342.149 -214.73)"/><path class="c" d="M377.351,267.388c-2.484,0-4.967,0-7.45,0-.583,0-1.366.118-1.384-.717-.018-.852.766-.742,1.35-.742q7.525-.008,15.051,0l.3,0c.535.008,1.055.11,1.019.783-.03.565-.507.673-.986.675q-2.309.008-4.619.005Z" transform="translate(-345.744 -222.106)"/><path class="a" d="M374.012,219.787h25.17c.4,0,.8.015,1.192,0,.572-.017.807.266.786.816-.012.3,0,.6,0,.894q0,16.309,0,32.617c0,.3-.012.6,0,.894.019.564-.252.815-.808.8-.3-.01-.6,0-.893,0H348.818c-.248,0-.5.01-.744,0-1.014-.052-1.1-.131-1.153-1.118-.017-.3,0-.6,0-.893V221.776c0-.249-.008-.5,0-.744.043-1.122.109-1.194,1.178-1.241.347-.015.695,0,1.042,0Zm18.06,22.041q0,5.13.005,10.26a7.065,7.065,0,0,0,.108,1.324.653.653,0,0,0,.657.505.667.667,0,0,0,.657-.5,3.333,3.333,0,0,0,.117-1.323q.005-10.259,0-20.52a7.31,7.31,0,0,0-.038-1.038c-.06-.42-.274-.778-.744-.787s-.691.345-.732.777c-.037.393-.03.792-.03,1.188Q392.07,236.773,392.071,241.828Zm-3.745-1.8c0,4.12-.008,8.239.008,12.358,0,.6-.223,1.5.732,1.485.914-.019.726-.9.726-1.519q.009-12.21,0-24.419a4.547,4.547,0,0,0-.085-1.03.63.63,0,0,0-.662-.492.642.642,0,0,0-.643.523,6.713,6.713,0,0,0-.074,1.182Q388.321,234.07,388.326,240.025ZM377,243.174q0,4.464,0,8.928c0,.348,0,.695.013,1.041.015.384.178.7.587.738a.729.729,0,0,0,.817-.688,6.922,6.922,0,0,0,.051-1.186q0-8.036,0-16.072c0-.794,0-1.588,0-2.381,0-.542-.151-1.073-.744-1.11-.673-.041-.726.531-.723,1.057,0,.3,0,.595,0,.893Q377,238.784,377,243.174Zm7.515.865v8.021c0,.3,0,.594.005.891,0,.493.165.939.706.963s.746-.394.75-.9c0-.248.005-.495.005-.743q0-8.243,0-16.486c0-1.219-.242-1.749-.767-1.635-.9.195-.688.964-.691,1.575C384.5,238.493,384.513,241.266,384.513,244.038Zm-24.955,2.276q0-2.383,0-4.767c0-.645.014-1.291-.016-1.936-.024-.509-.1-1.068-.79-1.024-.651.041-.722.576-.735,1.1-.007.3,0,.6,0,.893v6.256c0,1.788-.019,3.575.008,5.363.01.651-.233,1.5.732,1.708.546.121.789-.418.805-1.634,0-.2,0-.4,0-.6Zm2.276-.766q0,3.5,0,7c0,.587-.1,1.364.75,1.344s.714-.8.715-1.385q.008-7,0-14c0-.587.095-1.367-.751-1.346s-.711.8-.712,1.386C361.83,240.881,361.834,243.215,361.833,245.549Zm34.037-.014c0,2.331,0,4.664,0,7,0,.579-.123,1.365.727,1.363.865,0,.7-.8.7-1.371q.011-7,0-13.991c0-.57.153-1.37-.709-1.365-.842.005-.717.794-.719,1.373C395.865,240.871,395.87,243.2,395.87,245.535Zm-25.1-20.954c-.028-.281-.146-.559-.405-.565-.751-.017-1.057-.365-1.265-1.09a.621.621,0,0,0-1.2.133,2.149,2.149,0,0,1-1,1.358,1.818,1.818,0,0,0-.568,2.024,1.78,1.78,0,0,0,1.595,1.353c.245.03.495.014.742.033.322.024.608.145.582.518s-.355.429-.657.442c-.494.021-.991.005-1.484.036-.432.026-.773.212-.816.7a.641.641,0,0,0,.579.737c.53.089.911.26,1,.875a.621.621,0,0,0,.652.508.649.649,0,0,0,.692-.639c.005-.6.405-.825.825-1.107a1.859,1.859,0,0,0,.69-2.117,1.821,1.821,0,0,0-1.58-1.379c-.287-.061-.592-.026-.887-.06a.469.469,0,0,1-.476-.468.453.453,0,0,1,.486-.451c.543-.03,1.089-.018,1.632-.042C370.42,225.349,370.765,225.131,370.773,224.581Zm-3.657,22.6c0-1.782.008-3.565,0-5.347-.007-1.088-.27-1.561-.81-1.444-.827.178-.646.883-.648,1.447-.011,3.564-.006,7.129,0,10.694a5.842,5.842,0,0,0,.034.74.672.672,0,0,0,.693.641.689.689,0,0,0,.7-.645,7.167,7.167,0,0,0,.04-1.036C367.119,250.552,367.116,248.869,367.116,247.185Zm6.045.008q0,2.671,0,5.342c0,.607-.035,1.348.773,1.341.867-.008.69-.808.692-1.371.011-3.561.006-7.123.005-10.685,0-.2,0-.4-.008-.593-.022-.433-.175-.81-.658-.837-.569-.032-.753.382-.793.867-.025.3-.01.593-.01.89Zm-3.681-1.642q0,2.969,0,5.94c0,.544-.008,1.09.014,1.633.018.442.211.791.711.757.409-.028.567-.348.6-.727.015-.2.019-.4.019-.593q0-7.054-.005-14.109c0-.524.113-1.244-.654-1.259s-.658.7-.679,1.228c-.009.247,0,.495,0,.743Zm-12.446-21.576v0c-1.83,0-3.66-.007-5.489,0-.534,0-1.039.15-.987.815.045.57.523.645,1,.649q.371,0,.741,0h6.973c1.038,0,2.077,0,3.115-.01.431-.005.808-.16.843-.649.041-.575-.368-.759-.852-.8-.294-.027-.593-.013-.89-.013Zm-2.1,5.288v0c1.184,0,2.368.008,3.551,0,.491-.005.892-.206.92-.754.032-.608-.409-.709-.893-.71q-3.477,0-6.954,0c-.535,0-1.046.124-1.005.787.034.55.5.678.978.68C352.666,229.266,353.8,229.264,354.935,229.264Zm-2.982,20.244c0-1.134,0-2.269,0-3.4,0-.47-.082-.945-.656-.985-.669-.047-.8.456-.8.989q-.01,3.4,0,6.807c0,.546.158,1.035.807.986.549-.041.658-.508.657-.991C351.951,251.777,351.953,250.642,351.953,249.508Zm2.37-.077c0,.745,0,1.491,0,2.236,0,.5,0,.993.013,1.49a.688.688,0,0,0,.589.746c.508.078.708-.288.8-.695a4.189,4.189,0,0,0,.061-.887c.006-1.043,0-2.087,0-3.13,0-.943,0-1.887,0-2.831,0-.557,0-1.2-.738-1.243-.821-.041-.716.652-.722,1.185C354.315,247.345,354.323,248.388,354.323,249.431Zm26.486-.6c0,1.238-.015,2.474.007,3.711.01.559-.154,1.365.732,1.321.758-.037.593-.786.6-1.3q.02-3.636,0-7.273a4.558,4.558,0,0,0-.118-1.022.493.493,0,0,0-.458-.32.539.539,0,0,0-.616.3,3.481,3.481,0,0,0-.136,1.018C380.8,246.452,380.809,247.64,380.808,248.827Z" transform="translate(-342.416 -214.999)"/><path class="d" d="M400.294,243.643q0-5.055,0-10.112c0-.4-.008-.794.03-1.188.041-.432.25-.786.732-.777s.684.367.744.787a7.31,7.31,0,0,1,.038,1.038q0,10.259,0,20.52a3.333,3.333,0,0,1-.117,1.323.667.667,0,0,1-.657.5.653.653,0,0,1-.657-.505,7.065,7.065,0,0,1-.108-1.324Q400.286,248.774,400.294,243.643Z" transform="translate(-350.638 -216.814)"/><path class="d" d="M395.865,241.232q0-5.955,0-11.911a6.713,6.713,0,0,1,.074-1.182.642.642,0,0,1,.643-.523.63.63,0,0,1,.662.492,4.547,4.547,0,0,1,.085,1.03q.006,12.21,0,24.419c0,.618.189,1.5-.726,1.519-.954.019-.729-.885-.732-1.485C395.857,249.471,395.865,245.352,395.865,241.232Z" transform="translate(-349.954 -216.206)"/><path class="d" d="M382.476,245.479q0-4.391,0-8.78c0-.3,0-.6,0-.893,0-.525.05-1.1.723-1.057.594.037.744.568.744,1.11,0,.794,0,1.588,0,2.381q0,8.035,0,16.072a6.922,6.922,0,0,1-.051,1.186.729.729,0,0,1-.817.688c-.409-.042-.572-.354-.587-.738-.014-.347-.013-.694-.013-1.041Q382.476,249.943,382.476,245.479Z" transform="translate(-347.894 -217.304)"/><path class="d" d="M391.357,246.651c0-2.772-.008-5.545.007-8.318,0-.611-.2-1.381.691-1.575.525-.114.766.416.767,1.635q.005,8.243,0,16.486c0,.248,0,.495-.005.743,0,.508-.2.925-.75.9s-.7-.47-.706-.963c0-.3-.005-.594-.005-.891Z" transform="translate(-349.26 -217.612)"/><path class="d" d="M361.576,249.739V255.1c0,.2,0,.4,0,.6-.016,1.216-.26,1.755-.805,1.634-.964-.212-.722-1.057-.732-1.708-.027-1.788-.008-3.575-.008-5.363V244c0-.3,0-.6,0-.893.013-.522.085-1.057.735-1.1.69-.044.766.514.79,1.024.03.645.016,1.291.016,1.936Q361.578,247.356,361.576,249.739Z" transform="translate(-344.435 -218.423)"/><path class="d" d="M364.55,248.714c0-2.334,0-4.668,0-7,0-.583-.12-1.365.712-1.386s.75.759.751,1.346q.008,7,0,14c0,.582.123,1.365-.715,1.385s-.749-.757-.75-1.344Q364.545,252.215,364.55,248.714Z" transform="translate(-345.132 -218.163)"/><path class="d" d="M404.784,248.7c0-2.332,0-4.664,0-7,0-.579-.123-1.368.719-1.373.862-.006.708.794.709,1.365q.013,7,0,13.991c0,.57.162,1.369-.7,1.371-.849,0-.724-.783-.727-1.363C404.779,253.364,404.784,251.032,404.784,248.7Z" transform="translate(-351.33 -218.164)"/><path class="d" d="M374.294,225.08c-.008.55-.353.768-.859.791-.543.025-1.089.013-1.632.042a.453.453,0,0,0-.486.451.469.469,0,0,0,.476.468c.294.034.6,0,.887.06a1.821,1.821,0,0,1,1.58,1.379,1.859,1.859,0,0,1-.69,2.117c-.42.283-.82.5-.825,1.107a.649.649,0,0,1-.692.639.621.621,0,0,1-.652-.508c-.087-.615-.468-.786-1-.875a.64.64,0,0,1-.579-.737c.043-.484.384-.669.816-.7.493-.03.99-.014,1.484-.036.3-.013.632-.063.657-.442s-.26-.494-.582-.518c-.247-.019-.5,0-.742-.033a1.78,1.78,0,0,1-1.595-1.353,1.818,1.818,0,0,1,.568-2.024,2.149,2.149,0,0,0,1-1.358.621.621,0,0,1,1.2-.133c.208.724.513,1.073,1.265,1.09C374.148,224.521,374.266,224.8,374.294,225.08Z" transform="translate(-345.936 -215.498)"/><path class="d" d="M370.526,250.935c0,1.683,0,3.367,0,5.05a7.167,7.167,0,0,1-.04,1.036.689.689,0,0,1-.7.645.672.672,0,0,1-.693-.641,5.842,5.842,0,0,1-.034-.74c0-3.565-.007-7.13,0-10.694,0-.564-.179-1.269.648-1.447.54-.117.8.356.81,1.444C370.534,247.371,370.526,249.153,370.526,250.935Z" transform="translate(-345.826 -218.749)"/><path class="d" d="M377.94,250.946V245.9c0-.3-.014-.595.01-.89.041-.485.224-.9.793-.867.483.027.636.4.658.837.01.2.008.4.008.593,0,3.562.006,7.123-.005,10.685,0,.563.175,1.364-.692,1.371-.808.007-.774-.734-.773-1.341Q377.942,253.617,377.94,250.946Z" transform="translate(-347.194 -218.751)"/><path class="d" d="M373.589,248.722v-6.386c0-.248-.008-.5,0-.743.021-.529-.1-1.244.679-1.228s.653.735.654,1.259q.013,7.054.005,14.109c0,.2,0,.4-.019.593-.03.379-.187.7-.6.727-.5.034-.693-.315-.711-.757-.022-.543-.013-1.089-.014-1.633Q373.588,251.692,373.589,248.722Z" transform="translate(-346.525 -218.169)"/><path class="c" d="M357.7,224.738h4.451c.3,0,.6-.014.89.013.484.045.893.228.852.8-.036.489-.413.644-.843.649-1.038.014-2.077.009-3.115.01h-6.973q-.371,0-.741,0c-.473,0-.951-.079-1-.649-.052-.665.453-.811.987-.815,1.829-.01,3.659,0,5.489,0Z" transform="translate(-343.079 -215.762)"/><path class="c" d="M355.6,230.722c-1.134,0-2.269,0-3.4,0-.48,0-.944-.13-.978-.68-.041-.663.47-.786,1.005-.787q3.477-.006,6.954,0c.485,0,.925.1.893.71-.029.547-.429.749-.92.754-1.184.012-2.368,0-3.551,0Z" transform="translate(-343.079 -216.457)"/><path class="d" d="M352.6,254.12c0,1.134,0,2.269,0,3.4,0,.484-.108.95-.657.991-.649.048-.806-.441-.807-.986q0-3.4,0-6.807c0-.533.133-1.035.8-.989.574.04.655.515.656.985C352.608,251.852,352.6,252.986,352.6,254.12Z" transform="translate(-343.067 -219.612)"/><path class="d" d="M355.672,254.043c0-1.043-.008-2.086,0-3.129.006-.533-.1-1.227.722-1.185.735.038.734.685.738,1.243.007.944,0,1.888,0,2.831,0,1.043,0,2.087,0,3.13a4.189,4.189,0,0,1-.061.887c-.092.407-.293.772-.8.695a.688.688,0,0,1-.589-.746c-.013-.5-.012-.993-.013-1.49C355.67,255.534,355.672,254.788,355.672,254.043Z" transform="translate(-343.765 -219.611)"/><path class="d" d="M386.98,253.225c0-1.187-.009-2.375.006-3.562a3.481,3.481,0,0,1,.136-1.018.539.539,0,0,1,.616-.3.493.493,0,0,1,.458.32,4.558,4.558,0,0,1,.118,1.022q.014,3.637,0,7.273c0,.516.162,1.265-.6,1.3-.886.044-.722-.762-.732-1.321C386.964,255.7,386.979,254.462,386.98,253.225Z" transform="translate(-348.587 -219.397)"/></g></g></svg>