<svg xmlns="http://www.w3.org/2000/svg" width="120.149" height="120.149" viewBox="0 0 120.149 120.149"><defs><style>.a{fill:#fff;}.b,.f{fill:none;}.b{stroke:#b9b8b8;stroke-linejoin:round;stroke-width:2px;}.c{fill:#2588ad;}.d{fill:#b9b8b8;}.e{stroke:none;}</style></defs><g transform="translate(2 2)"><circle class="a" cx="58.075" cy="58.075" r="58.075"/><g class="b"><circle class="e" cx="58.075" cy="58.075" r="58.075"/><circle class="f" cx="58.075" cy="58.075" r="59.075"/></g><g transform="translate(27.107 31.276)"><path class="c" d="M162.129,233.266c-.33.772.1,1.195.85,1.506a14.08,14.08,0,0,1,1.855.947c1.216.729,2.241,1.3,3.611-.031a3.6,3.6,0,0,1,4.088-.3,1.256,1.256,0,0,0,1.676-.349c1.623-1.677,3.256-3.347,4.94-4.961a1.515,1.515,0,0,0,.462-2.027,4.424,4.424,0,0,1,1.3-5.242,4.552,4.552,0,0,1,5.542-.265,4.227,4.227,0,0,1,1.965,3.35,1.525,1.525,0,0,0,1.377,1.594,5.264,5.264,0,0,1,.99.321,2.389,2.389,0,0,0,3.218-.666,3.986,3.986,0,0,1,5.2-.563,1.764,1.764,0,0,0,2.356-.194c1.1-.849,2.24-1.647,3.4-2.411a1.316,1.316,0,0,0,.706-1.666,4.375,4.375,0,0,1,2.425-5.217,4.59,4.59,0,0,1,5.56,7.047,4.308,4.308,0,0,1-5.491,1.179,2.147,2.147,0,0,0-2.947.272c-.96.782-1.995,1.477-3.029,2.161a1.529,1.529,0,0,0-.74,1.86,4.5,4.5,0,0,1-2.993,5.312,4.632,4.632,0,0,1-5.577-2.253,3.5,3.5,0,0,1-.475-1.706c.027-.945-.47-1.33-1.29-1.513a10.279,10.279,0,0,1-1.134-.365c-1.117-.392-2.006-.755-3.031.579a3.821,3.821,0,0,1-4.769.926,1.419,1.419,0,0,0-1.893.46c-1.591,1.639-3.188,3.275-4.841,4.852a1.493,1.493,0,0,0-.448,2.015,4.282,4.282,0,0,1-1.1,5.03,4.563,4.563,0,0,1-5.116.816,4.456,4.456,0,0,1-2.573-4.619,1.246,1.246,0,0,0-.811-1.495c-1.04-.468-2.058-.993-3.049-1.558a1.4,1.4,0,0,0-1.843.212,4.485,4.485,0,0,1-5.874.028,4.594,4.594,0,1,1,7.508-3.065Zm5.518,6.369a3.078,3.078,0,0,0,3.095,3.109,3.273,3.273,0,0,0,3.174-3.107,3.2,3.2,0,0,0-3.241-3.155A3.021,3.021,0,0,0,167.647,239.635Zm-7.006-6.851a3.071,3.071,0,0,0-3.063-3.132,3.19,3.19,0,0,0-3.181,3.076,3.12,3.12,0,0,0,3.2,3.188A3.015,3.015,0,0,0,160.641,232.784Zm49.522-8.467a3.2,3.2,0,0,0,3.109-3.132,3.315,3.315,0,0,0-3.153-3.13,3.2,3.2,0,0,0-3.129,3.253A3.048,3.048,0,0,0,210.163,224.317Zm-26.323,5.115a3.193,3.193,0,0,0,3.2-3.073,3.362,3.362,0,0,0-3.145-3.193,3.185,3.185,0,0,0-3.127,3.146A2.982,2.982,0,0,0,183.84,229.431Zm13.1-1.961a2.991,2.991,0,0,0-3.056,3.138,3.169,3.169,0,0,0,3.15,3.111,3.317,3.317,0,0,0,3.122-3.2A3.2,3.2,0,0,0,196.937,227.47Z" transform="translate(-152.875 -216.598)"/><path class="d" d="M224.344,249.052q0,8.714,0,17.428c0,.348-.008.7,0,1.042.011.727-.311,1.107-1.069,1.1q-3.649-.011-7.3,0a.946.946,0,0,1-1.088-1.089c0-.3,0-.6,0-.893V231.792c0-.2-.005-.4,0-.6.041-1.3.3-1.6,1.566-1.612q3.276-.034,6.554,0c1.119.012,1.309.2,1.332,1.3.029,1.29.008,2.582.008,3.873Q224.345,241.9,224.344,249.052Zm-1.477.179V232.992c0-.3-.023-.6,0-.894.066-.75-.222-1.077-1.013-1.054-1.439.042-2.88,0-4.32.015-1.159.013-1.16.029-1.195,1.15,0,.149,0,.3,0,.447q0,16.463,0,32.927c0,.3,0,.6.012.893.012.4.2.669.623.671,1.738.008,3.476.007,5.214.005a.592.592,0,0,0,.658-.637c.014-.4.016-.794.016-1.192Q222.869,257.278,222.867,249.232Z" transform="translate(-162.417 -218.596)"/><path class="d" d="M193.335,252.892v14.582c0,.4.006.794-.012,1.19a.854.854,0,0,1-.935.923q-3.794.006-7.588,0c-.608,0-.891-.36-.916-.942-.014-.347-.009-.695-.009-1.041q0-14.88,0-29.758c0-.1,0-.2,0-.3.017-1.595.086-1.672,1.69-1.678,2.083-.008,4.166-.013,6.249,0,1.392.009,1.516.13,1.518,1.547Q193.346,245.156,193.335,252.892Zm-1.477-.041V241.545c0-1.041-.025-2.084.007-3.124.022-.718-.176-1.107-.991-1.086-1.536.04-3.075.031-4.611,0-.725-.014-.979.317-.931.991.018.246,0,.5,0,.744q0,13.687,0,27.374c0,.347,0,.694.007,1.041a.751.751,0,0,0,.827.833q2.454.01,4.908-.009c.556-.006.777-.357.776-.881,0-.347.006-.695.006-1.041Q191.859,259.621,191.858,252.851Z" transform="translate(-157.641 -219.565)"/><path class="d" d="M208.839,255.618q0,6.33,0,12.658c0,.348,0,.7-.005,1.042-.006.65-.294,1.034-.982,1.034q-3.722,0-7.445,0a.9.9,0,0,1-1.02-1c-.008-.3-.008-.6-.008-.893V243c0-.3-.016-.6.008-.893.087-1.06.3-1.277,1.377-1.286q3.275-.029,6.552,0c1.4.008,1.517.127,1.52,1.547Q208.85,248.992,208.839,255.618Zm-1.478-.039q0-4.7,0-9.39c0-.993-.015-1.987,0-2.98.011-.6-.182-.93-.847-.921-1.59.02-3.179.017-4.769,0-.607-.007-.946.2-.911.855.015.3,0,.6,0,.894v23.1c0,.3.017.6,0,.894-.044.763.317,1.079,1.068,1.068,1.292-.019,2.584,0,3.875-.005,1.549-.011,1.578-.036,1.581-1.592Q207.369,261.541,207.361,255.579Z" transform="translate(-160.028 -220.327)"/><path class="d" d="M152.865,257.355V246.033c0-.348,0-.7.008-1.043a.9.9,0,0,1,1.024-1q3.726,0,7.45,0a.855.855,0,0,1,.956.9c.018.347.012.7.012,1.043v22.943c0,.348,0,.7-.01,1.043a.845.845,0,0,1-.941.913c-2.533,0-5.066.005-7.6-.006-.616,0-.881-.388-.891-.965-.012-.744-.008-1.49-.009-2.235Q152.864,262.5,152.865,257.355Zm7.983.209q0-5.206,0-10.411,0-.52-.014-1.041a.581.581,0,0,0-.651-.634q-2.6,0-5.2,0a.583.583,0,0,0-.641.645c-.009.4-.013.794-.013,1.189q0,10.114,0,20.227c0,.3.019.6,0,.892-.047.7.266.977.964.963,1.387-.027,2.776,0,4.164-.008s1.392-.019,1.4-1.412C160.854,264.5,160.848,261.034,160.848,257.564Z" transform="translate(-152.865 -220.818)"/><path class="d" d="M183.821,279.682H155.086c-.447,0-.893.005-1.339-.018a.581.581,0,0,1-.6-.545.659.659,0,0,1,.487-.808,7.519,7.519,0,0,1,1.475-.1q22.259-.008,44.517,0c4.516,0,9.032-.006,13.548.008.608,0,1.381-.221,1.588.678.125.542-.39.789-1.614.789Q198.486,279.684,183.821,279.682Z" transform="translate(-152.907 -226.085)"/><path class="d" d="M168.37,261.88q0-4.016,0-8.031a7.381,7.381,0,0,1,.047-1.186.927.927,0,0,1,.992-.9c2.479.009,4.957,0,7.436.009.673,0,.977.391.979,1.044,0,.3.005.595.005.892q0,8.18,0,16.359c0,.347.006.695-.011,1.041a.856.856,0,0,1-.935.923q-3.792.006-7.584,0c-.7,0-.928-.455-.927-1.083q0-2.082,0-4.165Q168.369,264.333,168.37,261.88Zm7.983.159c0-2.581-.017-5.163.01-7.743.008-.742-.217-1.084-1.013-1.062-1.488.042-2.979-.006-4.467.018-1.017.016-1.036.042-1.049,1.141-.019,1.589-.005,3.177-.005,4.765,0,3.425-.009,6.85.005,10.275.005,1.266.08,1.33,1.369,1.347s2.582.022,3.872,0c1.169-.022,1.265-.113,1.273-1.294C176.364,267,176.352,264.521,176.352,262.039Z" transform="translate(-155.253 -222.015)"/><path class="a" d="M170.327,243.256a3.021,3.021,0,0,1,3.028-3.154,3.2,3.2,0,0,1,3.241,3.155,3.273,3.273,0,0,1-3.174,3.107A3.078,3.078,0,0,1,170.327,243.256Z" transform="translate(-155.554 -220.218)"/><path class="a" d="M160.908,235.161a3.015,3.015,0,0,1-3.044,3.133,3.12,3.12,0,0,1-3.2-3.188,3.19,3.19,0,0,1,3.181-3.076A3.071,3.071,0,0,1,160.908,235.161Z" transform="translate(-153.141 -218.975)"/><path class="a" d="M220.005,224.582a3.048,3.048,0,0,1-3.173-3.009,3.2,3.2,0,0,1,3.129-3.253,3.315,3.315,0,0,1,3.153,3.13A3.2,3.2,0,0,1,220.005,224.582Z" transform="translate(-162.717 -216.863)"/><path class="a" d="M188.908,230.627a2.982,2.982,0,0,1-3.074-3.119,3.185,3.185,0,0,1,3.127-3.146,3.362,3.362,0,0,1,3.145,3.193A3.193,3.193,0,0,1,188.908,230.627Z" transform="translate(-157.943 -217.794)"/><path class="a" d="M204.394,229.45a3.2,3.2,0,0,1,3.217,3.051,3.317,3.317,0,0,1-3.122,3.2,3.169,3.169,0,0,1-3.15-3.111A2.991,2.991,0,0,1,204.394,229.45Z" transform="translate(-160.331 -218.577)"/><path class="a" d="M223.133,249.5q0,8.046,0,16.091c0,.4,0,.794-.016,1.192a.592.592,0,0,1-.658.637c-1.738,0-3.475,0-5.214-.005-.426,0-.612-.266-.623-.671-.008-.3-.012-.6-.012-.893q0-16.463,0-32.927c0-.149,0-.3,0-.447.035-1.121.036-1.137,1.195-1.15,1.441-.016,2.881.027,4.32-.015.791-.023,1.079.3,1.013,1.054-.026.3,0,.6,0,.894Z" transform="translate(-162.683 -218.864)"/><path class="a" d="M192.123,253.12q0,6.769,0,13.538c0,.347-.006.695-.006,1.041,0,.524-.22.875-.776.881q-2.454.023-4.908.009a.751.751,0,0,1-.827-.833c0-.348-.007-.695-.007-1.041q0-13.687,0-27.374c0-.248.016-.5,0-.744-.048-.673.206-1,.931-.991,1.536.028,3.075.036,4.611,0,.816-.021,1.013.368.991,1.086-.031,1.041-.007,2.083-.007,3.124Z" transform="translate(-157.905 -219.833)"/><path class="a" d="M207.627,255.849q0,5.961,0,11.923c0,1.557-.032,1.581-1.581,1.592-1.292.008-2.584-.014-3.875.005-.75.011-1.112-.3-1.068-1.068.018-.3,0-.6,0-.894v-23.1c0-.3.016-.6,0-.894-.035-.654.3-.862.911-.855,1.59.017,3.179.02,4.769,0,.665-.008.858.321.847.921-.018.993,0,1.987,0,2.98Q207.628,251.154,207.627,255.849Z" transform="translate(-160.294 -220.596)"/><path class="a" d="M161.113,257.834c0,3.47.006,6.94,0,10.41,0,1.393-.018,1.4-1.395,1.412s-2.776-.019-4.164.008c-.7.014-1.011-.264-.964-.963.019-.3,0-.595,0-.892q0-10.114,0-20.227c0-.4,0-.793.013-1.189a.583.583,0,0,1,.641-.645q2.6-.005,5.2,0a.581.581,0,0,1,.651.634q.014.52.014,1.041Q161.114,252.628,161.113,257.834Z" transform="translate(-153.129 -221.088)"/><path class="a" d="M176.617,262.306c0,2.482.012,4.963-.005,7.445-.008,1.181-.1,1.272-1.273,1.294-1.29.024-2.582.019-3.872,0s-1.364-.08-1.369-1.347c-.014-3.425-.005-6.85-.005-10.275,0-1.588-.014-3.177.005-4.765.013-1.1.032-1.125,1.049-1.141,1.488-.024,2.979.025,4.467-.018.8-.022,1.021.32,1.013,1.062C176.6,257.143,176.617,259.725,176.617,262.306Z" transform="translate(-155.518 -222.282)"/></g></g></svg>