<svg xmlns="http://www.w3.org/2000/svg" width="270.904" height="39.926" viewBox="0 0 270.904 39.926"><g transform="translate(-576.891 -480.386)"><g transform="translate(576.891 480.386)"><path d="M576.891,507.777l12.463,12.534h27.463V480.386H576.891Z" transform="translate(-576.891 -480.386)"/></g><g transform="translate(659.706 483.978)"><path d="M1255.774,490.971H1223.19v32.6h7.342v-6.906h22.185v-6.72h-22.185V497.691h25.242v25.884h7.342V498.313l-5.672-5.672Z" transform="translate(-1086.694 -490.971)"/><path d="M828.285,490.971h-7.342v32.6h38.714V516.73H828.285Z" transform="translate(-820.943 -490.971)"/><path d="M950.035,490.971v6.844h40.329v-6.844H950.035Z" transform="translate(-906.23 -490.971)"/><path d="M957.377,535.3h30.134v-6.144H950.035V548.8h40.329v-6.844H957.377Z" transform="translate(-906.23 -516.198)"/><path d="M1115.989,490.971,1099.4,507.562l-15.958,16.013h9.884l11.3-11.343,11.3,11.343h9.884l-16.246-16.3,16.246-16.3Z" transform="translate(-994.366 -490.971)"/><path d="M1092.416,490.971h-9.884l14.089,14.137,4.95-4.95Z" transform="translate(-993.766 -490.971)"/><g transform="translate(181.293 25.77)"><path d="M1364.395,573.278a.9.9,0,0,0-.3-.7,1.02,1.02,0,0,0-.7-.269h-1.68c-.021,0-.032.015-.032.043v3.091c0,.036.011.054.032.054h.5c.014,0,.022-.018.022-.054v-1.2h.84l.564,1.21a.063.063,0,0,0,.055.04h.544q.065,0,.039-.062l-.614-1.239A.964.964,0,0,0,1364.395,573.278Zm-.711.3a.5.5,0,0,1-.345.124h-1.109v-.84h1.109q.485,0,.485.42A.383.383,0,0,1,1363.684,573.575Z" transform="translate(-1359.484 -570.478)"/><path d="M1361.006,567.91a3.387,3.387,0,1,0,1,2.4A3.268,3.268,0,0,0,1361.006,567.91Zm-.393,4.4a2.841,2.841,0,1,1,.829-2.009A2.722,2.722,0,0,1,1360.613,572.315Z" transform="translate(-1355.207 -566.914)"/></g></g></g></svg>