<svg xmlns="http://www.w3.org/2000/svg" width="120.149" height="120.149" viewBox="0 0 120.149 120.149"><defs><style>.a{fill:#fff;}.b,.f{fill:none;}.b{stroke:#b9b8b8;stroke-linejoin:round;stroke-width:2px;}.c{fill:#b9b8b8;}.d{fill:#2588ad;}.e{stroke:none;}</style></defs><g transform="translate(2 2)"><circle class="a" cx="58.075" cy="58.075" r="58.075"/><g class="b"><circle class="e" cx="58.075" cy="58.075" r="58.075"/><circle class="f" cx="58.075" cy="58.075" r="59.075"/></g><g transform="translate(28.597 26.272)"><path class="c" d="M756.667,267.243c0,1.409-.043,1.49-1.346,1.491q-15.349.013-30.7,0c-1.163,0-1.391-.22-1.438-1.378-.042-1.042,0-2.086-.02-3.129-.043-2.419,1.136-3.7,3.558-3.77,1.29-.04,2.583.008,3.875-.013,1.15-.019,1.184-.047,1.2-1.172.021-1.54-.023-3.08.018-4.619a1.42,1.42,0,0,0-.829-1.415c-1.672-.972-3.29-2.038-4.963-3.007a2.119,2.119,0,0,1-1.115-1.628,46.479,46.479,0,0,1-.842-10.052c.251-5,1.213-9.85,3.858-14.2a20.335,20.335,0,0,1,11.859-8.918,4.137,4.137,0,0,0,2.435-1.733,6.745,6.745,0,0,1,4.629-2.954,2.361,2.361,0,0,1,1.026-.007c.521.147.874.483.662,1.112q-.332.987-.658,1.977c-.49,1.48-.489,1.48.9,2.051a3.776,3.776,0,0,0,.687.284c2.353.448,3.863,1.941,5.176,3.852a25.6,25.6,0,0,0,5.72,6.015,2.211,2.211,0,0,1,.874,1.8,15.894,15.894,0,0,0,.265,3.257,1.108,1.108,0,0,1-.651,1.349c-1.366.706-2.713,1.45-4.073,2.168a1.015,1.015,0,0,1-1.343-.262c-1.944-2.232-4.55-3.055-7.347-3.531a23.063,23.063,0,0,1-2.682-.784c-.442.5-.052.887.111,1.259a24.473,24.473,0,0,0,7.917,9.686c.315.239.635.477.925.745.357.331.566.755.2,1.174-.316.364-.729.223-1.071-.032-.755-.563-1.535-1.1-2.243-1.718a26.112,26.112,0,0,1-6.823-8.548,22.9,22.9,0,0,1-1.225-3.508,6.44,6.44,0,0,1-.112-1.48.712.712,0,0,1,.426-.725.6.6,0,0,1,.771.287c.735,1.331,2.064,1.612,3.36,1.943.91.233,1.837.4,2.75.626a11.475,11.475,0,0,1,5.123,2.6c.747.678,1.359.524,2.249.163,1.845-.75,2.358-1.965,2.049-3.825a2.6,2.6,0,0,0-.849-1.8,38.4,38.4,0,0,1-6.813-7.631,2.5,2.5,0,0,0-1.274-.969c-1.358-.47-2.7-1-4.033-1.529-1.14-.45-1.261-.729-.906-1.931.21-.711.436-1.419.648-2.129.01-.033-.036-.084-.1-.223a5.379,5.379,0,0,0-3.49,2.671,3.517,3.517,0,0,1-2.194,1.541,19.594,19.594,0,0,0-8.96,5.084,20.388,20.388,0,0,0-5.109,9.12,32.312,32.312,0,0,0-1.17,9.7,39.659,39.659,0,0,0,.78,7.376,1.737,1.737,0,0,0,.885,1.257c1.706,1.013,3.361,2.115,5.1,3.075a1.722,1.722,0,0,1,.972,1.8c-.042,1.738-.027,3.477-.007,5.215.013,1.038.677,1.447,1.664,1.089.508-.184.44-.608.442-.991.011-1.59,0-3.179.008-4.769a6.149,6.149,0,0,1,.041-1.039c.071-.411.3-.788.752-.8.541-.019.77.4.846.87a6.667,6.667,0,0,1,.027,1.041c0,1.54.032,3.08-.009,4.619-.025.931.184,1.191,1.267,1.107a.622.622,0,0,0,.634-.672c.013-.348.016-.7.016-1.043q0-5.067,0-10.133c0-1.24.318-1.888.88-1.752.918.222.784,1.019.785,1.7q.008,5.365,0,10.729c0,.639.012,1.2.9,1.19.874-.014,1-.133,1.006-1.378.008-4.918,0-9.835.007-14.753a3.979,3.979,0,0,1,.117-1.475c.133-.343.318-.623.743-.609a.714.714,0,0,1,.7.656,7.335,7.335,0,0,1,.1,1.329q.01,7.152,0,14.305c0,.348.013.7,0,1.043-.02.634.294.869.909.882.68.014,1-.228,1-.944q-.02-5.364,0-10.729a6.2,6.2,0,0,1,.1-1.328.752.752,0,0,1,.735-.631.76.76,0,0,1,.738.629,4.984,4.984,0,0,1,.091,1.181c.006,3.377,0,6.755.005,10.133,0,1.73.007,1.731,1.739,1.673a3.743,3.743,0,0,0,.441-.065l-.03-.006c.063.233.248.291.455.316a.347.347,0,0,1,.14.429,1.124,1.124,0,0,1-.932.837,8,8,0,0,1-1.771.159q-10.117,0-20.234,0c-.446,0-.9-.02-1.337.023a1.334,1.334,0,0,0-1.4,1.409c-.054.79-.03,1.586-.019,2.379.017,1.318.025,1.342,1.319,1.342q15.1,0,30.2-.024Z" transform="translate(-723.164 -210.683)"/><path class="d" d="M761.409,272.761l-.3-.008a17.931,17.931,0,0,1-5.823-6.124.349.349,0,0,0-.14-.43c-.1-.184-.184-.383-.455-.316l.03.006c.272-.572-.1-1.054-.235-1.561a13.907,13.907,0,1,1,26.969-6.722,13.168,13.168,0,0,1-4.95,13.658c-4.325,3.456-9.169,3.97-14.289,1.883C761.939,273.036,761.677,272.891,761.409,272.761Zm6.376.057a12.412,12.412,0,1,0-12.338-12.426A12.335,12.335,0,0,0,767.785,272.818Z" transform="translate(-727.906 -216.201)"/><path class="d" d="M770.935,282.882c-.036.54-.049,1.083-.119,1.618a.64.64,0,0,1-.607.558.655.655,0,0,1-.771-.542,13.336,13.336,0,0,1-.013-3.243.681.681,0,0,1,.706-.635.726.726,0,0,1,.743.763c.041.49.009.986.009,1.479Z" transform="translate(-730.275 -221.459)"/><path class="d" d="M770.99,242.3c0,.491.019.982-.006,1.472a.681.681,0,0,1-.626.707.7.7,0,0,1-.82-.668c-.046-1.029-.041-2.061-.005-3.089a.656.656,0,0,1,.685-.641.673.673,0,0,1,.721.606c.08.53.066,1.074.092,1.613Z" transform="translate(-730.302 -215.211)"/><path class="d" d="M764.453,244.832a.722.722,0,0,1-.423.717.631.631,0,0,1-.888-.29c-.426-.992-.8-2.007-1.146-3.032a.659.659,0,0,1,.476-.812.692.692,0,0,1,.786.254A19.806,19.806,0,0,1,764.453,244.832Z" transform="translate(-729.14 -215.41)"/><path class="d" d="M782.176,248.973a.7.7,0,0,1-.638-1.065,15.428,15.428,0,0,1,2.1-2.479.61.61,0,0,1,.813-.055c.313.228.49.574.267.9a14.861,14.861,0,0,1-2.188,2.582A.844.844,0,0,1,782.176,248.973Z" transform="translate(-732.137 -216.007)"/><path class="d" d="M790.918,267.307c-.7-.129-1.617-.287-2.527-.473-.42-.086-.75-.341-.682-.81a.748.748,0,0,1,.977-.64q1.3.213,2.6.475c.475.1.835.353.748.905C791.957,267.264,791.556,267.318,790.918,267.307Z" transform="translate(-733.105 -219.106)"/><path class="d" d="M775.731,280.472c.074-.548.243-.831.631-.913a.617.617,0,0,1,.735.356c.394,1,.77,2.013,1.095,3.04.116.366-.14.658-.509.777a.588.588,0,0,1-.764-.273C776.478,282.426,776.085,281.373,775.731,280.472Z" transform="translate(-731.261 -221.29)"/><path class="d" d="M789.031,260.238c-.727.057-1.187-.019-1.276-.577s.333-.766.807-.855c.827-.156,1.654-.317,2.484-.459.5-.085.92.048,1.008.6s-.3.8-.777.9C790.451,260.005,789.619,260.137,789.031,260.238Z" transform="translate(-733.111 -218.021)"/><path class="d" d="M789.573,251.826a.867.867,0,0,1-.451.73q-1.146.694-2.317,1.346a.764.764,0,0,1-1.159-.242c-.262-.449.009-.783.356-1a28.114,28.114,0,0,1,2.454-1.406A.746.746,0,0,1,789.573,251.826Z" transform="translate(-732.772 -216.918)"/><path class="d" d="M784.7,279.365a.732.732,0,0,1-.391.578.712.712,0,0,1-.826-.089,17.429,17.429,0,0,1-2.071-2.48.59.59,0,0,1,.126-.8c.23-.214.561-.354.8-.151a11.441,11.441,0,0,1,2.341,2.793A.4.4,0,0,1,784.7,279.365Z" transform="translate(-732.12 -220.794)"/><path class="d" d="M776.708,245.668c-.556-.032-.83-.317-.762-.766a11.076,11.076,0,0,1,1.1-3.175.6.6,0,0,1,.761-.282.623.623,0,0,1,.495.651,11.736,11.736,0,0,1-1.167,3.294C777.06,245.536,776.819,245.6,776.708,245.668Z" transform="translate(-731.292 -215.415)"/><path class="d" d="M789.512,273.691c-.162.51-.505.821-1,.574-.925-.462-1.817-1-2.7-1.539a.7.7,0,0,1,.686-1.209c.914.486,1.808,1.014,2.7,1.545A.73.73,0,0,1,789.512,273.691Z" transform="translate(-732.765 -220.041)"/><path class="a" d="M750.846,270.293a17.931,17.931,0,0,0,5.823,6.124q-15.1.014-30.2.024c-1.294,0-1.3-.024-1.319-1.342-.01-.793-.035-1.589.019-2.379a1.334,1.334,0,0,1,1.4-1.409c.442-.043.892-.023,1.337-.023q10.117,0,20.234,0a8,8,0,0,0,1.771-.159A1.124,1.124,0,0,0,750.846,270.293Z" transform="translate(-723.467 -219.865)"/><path class="a" d="M754.825,269.41c.272-.068.359.131.455.316C755.073,269.7,754.888,269.643,754.825,269.41Z" transform="translate(-728.041 -219.727)"/><path class="a" d="M768.057,273.089A12.412,12.412,0,1,1,780.568,260.8,12.363,12.363,0,0,1,768.057,273.089Zm4.773-9.294a3.818,3.818,0,0,0-3.611-3.831c-.741-.053-1.493.021-2.233-.042a2.348,2.348,0,0,1-2.115-1.993,2.417,2.417,0,0,1,1.484-2.5,4.344,4.344,0,0,1,1.755-.253q1.936.011,3.875-.009c.445-.005.8-.2.8-.689s-.356-.69-.793-.707c-.695-.028-1.392-.052-2.085-.014-.786.043-1.057-.31-1.026-1.057a10.51,10.51,0,0,0-.076-1.779.634.634,0,0,0-.768-.537.593.593,0,0,0-.562.587c-.032.345-.02.695-.023,1.042-.011,1.47-.01,1.47-1.453,1.977a3.948,3.948,0,0,0-2.608,3.938A3.845,3.845,0,0,0,766.9,261.4c.494.041.993.014,1.49.02,1.9.024,2.977.882,2.979,2.375,0,1.509-1.049,2.358-2.962,2.373-1.342.011-2.683.007-4.024.008-.5,0-.944.165-.953.713s.412.744.92.746c.794.005,1.59.015,2.384.01.5,0,.716.233.708.727-.01.645,0,1.292.013,1.937.008.382.151.7.571.747a.714.714,0,0,0,.81-.693,8.539,8.539,0,0,0,.047-1.188c.015-1.288.013-1.288,1.214-1.7A3.793,3.793,0,0,0,772.83,263.8Z" transform="translate(-728.178 -216.472)"/><path class="d" d="M774.224,264.179a3.793,3.793,0,0,1-2.731,3.676c-1.2.415-1.2.415-1.214,1.7a8.539,8.539,0,0,1-.047,1.188.714.714,0,0,1-.81.693c-.42-.045-.563-.365-.571-.747-.013-.645-.023-1.292-.013-1.937.008-.494-.206-.73-.708-.727-.794.005-1.59-.005-2.384-.01-.508,0-.93-.207-.92-.746s.454-.712.953-.713c1.342,0,2.683,0,4.024-.008,1.913-.015,2.964-.864,2.962-2.373,0-1.493-1.078-2.351-2.979-2.375-.5-.006-1,.02-1.49-.02a3.845,3.845,0,0,1-3.514-3.475,3.948,3.948,0,0,1,2.608-3.938c1.443-.507,1.442-.507,1.453-1.977,0-.348-.009-.7.023-1.042a.593.593,0,0,1,.562-.587.634.634,0,0,1,.768.537,10.51,10.51,0,0,1,.076,1.779c-.03.747.24,1.1,1.026,1.057.693-.037,1.391-.014,2.085.014.437.017.794.219.793.707s-.354.684-.8.689q-1.938.019-3.875.009a4.344,4.344,0,0,0-1.755.253,2.417,2.417,0,0,0-1.484,2.5,2.348,2.348,0,0,0,2.115,1.993c.74.063,1.492-.011,2.233.042A3.818,3.818,0,0,1,774.224,264.179Z" transform="translate(-729.572 -216.856)"/></g></g></svg>