<svg xmlns="http://www.w3.org/2000/svg" width="59.604" height="59.604" viewBox="0 0 59.604 59.604"><defs><style>.a{fill:#383838;}</style></defs><g transform="translate(-1535 -3119.396)"><path class="a" d="M192.527,3440.022a3.725,3.725,0,1,1,3.725-3.725,3.725,3.725,0,0,1-3.725,3.725Zm-1.787,28.858c-1.415.236-4.233.826-5.663.944a3.487,3.487,0,0,1-3.051-1.588,3.724,3.724,0,0,1-.451-3.41l5.633-15.491h-5.857c-.005-3.227,2.416-5.6,5.513-6.512a21.6,21.6,0,0,1,5.663-.938,4.492,4.492,0,0,1,3.05,1.588,3.726,3.726,0,0,1,.452,3.411l-5.634,15.49h5.856a6.594,6.594,0,0,1-5.511,6.506ZM188.8,3421.4a29.8,29.8,0,1,0,29.8,29.8A29.836,29.836,0,0,0,188.8,3421.4Z" transform="translate(1376 -302)"/></g></svg>