<svg xmlns="http://www.w3.org/2000/svg" width="263.119" height="38.778" viewBox="0 0 263.119 38.778"><g transform="translate(-576.891 -480.386)"><g transform="translate(576.891 480.386)"><path d="M576.891,506.99,589,519.164h26.673V480.386H576.891Z" transform="translate(-576.891 -480.386)"/></g><g transform="translate(657.326 483.874)"><path d="M1254.837,490.971H1223.19v31.667h7.131V515.93h21.548V509.4h-21.548V497.5h24.516v25.14h7.131V498.1l-5.509-5.509Z" transform="translate(-1090.617 -490.971)"/><path d="M828.074,490.971h-7.131v31.667h37.6V515.99H828.074Z" transform="translate(-820.943 -490.971)"/><path d="M950.035,490.971v6.648h39.17v-6.648h-39.17Z" transform="translate(-907.489 -490.971)"/><path d="M957.166,535.124h29.268v-5.968h-36.4v19.081h39.17V541.59h-32.04Z" transform="translate(-907.489 -516.571)"/><path d="M1115.054,490.971l-16.114,16.114-15.5,15.552h9.6l10.98-11.017L1115,522.637h9.6L1108.819,506.8l15.779-15.833Z" transform="translate(-996.926 -490.971)"/><path d="M1092.132,490.971h-9.6l13.684,13.731,4.808-4.808Z" transform="translate(-996.317 -490.971)"/><g transform="translate(176.084 25.03)"><path d="M1364.317,573.251a.869.869,0,0,0-.293-.68.991.991,0,0,0-.68-.262h-1.632c-.021,0-.031.014-.031.042v3c0,.035.01.052.031.052h.481c.014,0,.021-.017.021-.052v-1.161h.816l.547,1.175a.061.061,0,0,0,.053.039h.529q.063,0,.038-.06l-.6-1.2A.936.936,0,0,0,1364.317,573.251Zm-.69.288a.488.488,0,0,1-.335.12h-1.077v-.816h1.077q.471,0,.471.408A.372.372,0,0,1,1363.627,573.538Z" transform="translate(-1359.547 -570.531)"/><path d="M1360.84,567.882a3.289,3.289,0,1,0,.967,2.327A3.174,3.174,0,0,0,1360.84,567.882Zm-.382,4.278a2.759,2.759,0,1,1,.806-1.951A2.644,2.644,0,0,1,1360.458,572.16Z" transform="translate(-1355.207 -566.914)"/></g></g></g></svg>