<svg xmlns="http://www.w3.org/2000/svg" width="133.83" height="19.724" viewBox="0 0 133.83 19.724"><g transform="translate(0 0)"><path d="M576.891,493.918l6.157,6.192h13.567V480.386H576.891Z" transform="translate(-576.891 -480.386)"/></g><g transform="translate(40.912 1.774)"><path d="M1239.287,490.971h-16.1v16.107h3.627v-3.412h10.96v-3.32h-10.96V494.29h12.47v12.787h3.627V494.6l-2.8-2.8Z" transform="translate(-1155.76 -490.971)"/><path d="M824.57,490.971h-3.627v16.107h19.125V503.7h-15.5Z" transform="translate(-820.943 -490.971)"/><path d="M950.035,490.971v3.381h19.923v-3.381H950.035Z" transform="translate(-928.395 -490.971)"/><path d="M953.662,532.191h14.887v-3.035H950.035v9.705h19.923V535.48h-16.3Z" transform="translate(-928.395 -522.755)"/><path d="M1099.519,490.971l-8.2,8.2-7.884,7.91h4.883l5.584-5.6,5.585,5.6h4.883l-8.026-8.053,8.026-8.053Z" transform="translate(-1039.436 -490.971)"/><path d="M1087.415,490.971h-4.883l6.96,6.984,2.446-2.445Z" transform="translate(-1038.681 -490.971)"/><g transform="translate(89.561 12.731)"><path d="M1363.022,572.788a.442.442,0,0,0-.149-.346.5.5,0,0,0-.346-.133h-.83c-.01,0-.016.007-.016.021v1.527c0,.018.005.027.016.027h.245c.007,0,.011-.009.011-.027v-.591h.415l.278.6a.031.031,0,0,0,.027.02h.269c.021,0,.028-.01.019-.031l-.3-.612A.476.476,0,0,0,1363.022,572.788Zm-.351.146a.249.249,0,0,1-.17.061h-.548v-.415h.548q.24,0,.24.207A.19.19,0,0,1,1362.671,572.934Z" transform="translate(-1360.596 -571.405)"/><path d="M1358.072,567.406a1.673,1.673,0,1,0,.492,1.184A1.614,1.614,0,0,0,1358.072,567.406Zm-.194,2.176a1.4,1.4,0,1,1,.41-.992A1.344,1.344,0,0,1,1357.878,569.582Z" transform="translate(-1355.207 -566.914)"/></g></g></svg>