<svg xmlns="http://www.w3.org/2000/svg" width="96" height="74.717" viewBox="0 0 96 74.717"><defs><style>.a{fill:#2b2b2b;}</style></defs><path class="a" d="M876.322,1832.708a24.438,24.438,0,0,0,6.133-.581v4.777h-6.133Zm-10.211-4.191c-1.374-.954-3.2-3.059-3.2-10.3a44.828,44.828,0,0,1,4.374-18.556c2.463-5.094,5.458-8.385,7.63-8.385,2.27,0,6.088,3.975,9.006,11.574a33.727,33.727,0,0,0-2.193,5.126,1.407,1.407,0,0,0,2.668.892c2-5.987,5.092-9.693,6.806-9.693,1.161,0,3.318,1.874,5.308,5.989a32.752,32.752,0,0,1,3.2,13.554c0,3.886-.721,6.277-2.206,7.308-1.165.809-2.883.93-4.891.95v-4.3l4.562-4.562a1.406,1.406,0,0,0-1.989-1.989l-2.573,2.574v-6.885a1.406,1.406,0,0,0-2.813,0v15.164c-2.008-.019-3.726-.142-4.891-.951-1.485-1.031-2.206-3.422-2.206-7.308a27.712,27.712,0,0,1,.236-3.541,1.406,1.406,0,1,0-2.789-.36,30.6,30.6,0,0,0-.26,3.9c0,4.944,1.085,8,3.414,9.618.114.079.231.152.349.224-1.791,1.2-4.3,1.32-7.327,1.332v-14.684l2.159-2.159a1.406,1.406,0,0,0-1.989-1.989l-.17.171v-3.871a1.407,1.407,0,0,0-2.813,0v12.029l-1.77-1.77a1.406,1.406,0,0,0-1.989,1.988l3.561,3.561a1.4,1.4,0,0,0,.2.164v6.561c-3.015-.012-5.608-.135-7.4-1.379Zm31.528-39.621a13.393,13.393,0,0,1,7.753,2.444,99.075,99.075,0,0,0-1.108,14.261,61.049,61.049,0,0,0,.472,8.3,13.421,13.421,0,0,1-2.46,1.2,35.935,35.935,0,0,0-3.251-11.154v-3.41l2.964-2.964a1.406,1.406,0,1,0-1.989-1.988l-.974.975v-1.623a1.407,1.407,0,1,0-2.813,0v4.484c-1.637-1.98-3.374-3.057-5.03-3.057-1.991,0-3.848,1.46-5.44,3.57-.284-.65-.586-1.3-.9-1.934a13.522,13.522,0,0,1,12.78-9.1ZM915.6,1770.2c.328,0,1.968,1.179,4,6.949a1.406,1.406,0,1,0,2.653-.932c-.291-.828-.584-1.594-.878-2.3a11.2,11.2,0,0,1,14.977,7.619,11.216,11.216,0,0,0-11.5,4.347c-.212-1.036-.438-2.058-.679-3.058a1.406,1.406,0,0,0-2.734.66A98.6,98.6,0,0,1,924.1,1805.6c0,7.358-.815,11.93-2.491,13.977-1.079,1.317-2.453,1.555-4.606,1.595v-7.2l4.562-4.562a1.406,1.406,0,0,0-1.989-1.989L917.007,1810v-11.72a1.407,1.407,0,1,0-2.813,0v2.939l-2-2a1.406,1.406,0,0,0-1.988,1.989l3.984,3.985,0,0v15.979c-2.152-.04-3.527-.279-4.6-1.595-1.677-2.047-2.492-6.619-2.492-13.977a97.841,97.841,0,0,1,3.285-24.514C912.845,1772.14,915.16,1770.2,915.6,1770.2Zm10.086,20.336a8.852,8.852,0,0,1,8.235-6.458,8.431,8.431,0,0,1,8.422,8.421v17.554a24.993,24.993,0,0,0-3.965,11.09l-.021.011a8.37,8.37,0,0,1-3.03,1.14v-8.248l2.7-2.7a1.406,1.406,0,0,0-1.989-1.989l-.714.714v-8.57a1.406,1.406,0,1,0-2.812,0v2.1l-1.418-1.419a1.406,1.406,0,0,0-1.989,1.989l3.407,3.407v14.72a8.412,8.412,0,0,1-6.582-5.626l-.008-.021a47.582,47.582,0,0,0,.991-11.053A99.525,99.525,0,0,0,925.687,1790.539Zm27.5,10.919a11.063,11.063,0,0,1-2.864,7.47,5.031,5.031,0,0,0-3.533-1.917,3.63,3.63,0,0,0-1.634.415V1792.5a11.259,11.259,0,0,0-.149-1.819A11.235,11.235,0,0,1,953.187,1801.458Zm-2.083,27a5.45,5.45,0,0,1-2.908.611v-2.549c.026-.022.052-.044.077-.069l2.233-2.233a1.406,1.406,0,0,0-1.989-1.989l-.321.321v-4.013a1.406,1.406,0,0,0-2.812,0v10.532a5.443,5.443,0,0,1-2.909-.611c-.957-.665-1.422-2.282-1.422-4.944a23.2,23.2,0,0,1,2.264-9.6c1.443-2.983,2.9-4.095,3.473-4.095s2.029,1.112,3.472,4.095a23.185,23.185,0,0,1,2.264,9.6c0,2.662-.465,4.279-1.421,4.944Zm-15.776-3.319a11.179,11.179,0,0,0,2.93-.78c.122,3.21.96,5.26,2.612,6.409a7.883,7.883,0,0,0,4.513,1.115v5.018H935.328v-11.762Zm-6.394-1.077a11.188,11.188,0,0,0,3.582,1.078V1836.9h-3.582Zm-2.813-1.889V1836.9h-3.069v-14.77a7.091,7.091,0,0,0,.737-.774,8.43,8.43,0,0,0,.778-1.137,11.855,11.855,0,0,0,1.554,1.953Zm-9.114,1.812a13.537,13.537,0,0,0,3.232-.361V1836.9h-3.232Zm-8.522,4.192a13.759,13.759,0,0,0,5.709-2.377v11.1h-5.709Zm-9.38.159a6.285,6.285,0,0,0,1.268-1.172,13.808,13.808,0,0,0,5.3,1.213v8.524h-6.626Zm8.308-6.979a6.881,6.881,0,0,0,4.658,2.484,11.2,11.2,0,0,1-10.354.841,18.518,18.518,0,0,0,.8-5.964c0-.238-.005-.479-.011-.721a16.138,16.138,0,0,0,2.81-1.179A11.608,11.608,0,0,0,907.413,1821.36Zm-14.8,8.432a19.484,19.484,0,0,0,3.624-.291v7.4h-3.624Zm-5.892-.2a22.331,22.331,0,0,0,3.079.2v7.112h-4.528v-6.033a7.983,7.983,0,0,0,1.449-1.275Zm67.778,7.308h-6.3v-5.021a7.894,7.894,0,0,0,4.513-1.112c1.794-1.247,2.629-3.552,2.629-7.255a25.936,25.936,0,0,0-3.333-12.272,13.859,13.859,0,0,0,3.995-9.786,14.045,14.045,0,0,0-11.967-13.848,11.307,11.307,0,0,0-4.619-4.9,14,14,0,0,0-19.243-11.336c-1.453-2.669-2.963-3.981-4.57-3.981-1.629,0-3.137,1.328-4.608,4.058a44.306,44.306,0,0,0-3.322,8.893c-.691,2.509-1.289,5.2-1.784,7.976a16.186,16.186,0,0,0-8.248-2.234,16.35,16.35,0,0,0-2.543.2v-10.635a11.269,11.269,0,0,0-7.4-10.563,1.406,1.406,0,0,0-.959,2.644,8.449,8.449,0,0,1,5.549,7.919v11.341a16.369,16.369,0,0,0-7.016,4.765v-2.3l2.7-2.7a1.406,1.406,0,0,0-1.988-1.989l-.714.714v-8.571a1.406,1.406,0,0,0-2.812,0v2.1l-1.419-1.418a1.406,1.406,0,1,0-1.988,1.989l3.407,3.407v10.905c-2.051-2.956-4.463-5.132-7.016-5.4v-12.849a8.452,8.452,0,0,1,5.523-7.91,1.406,1.406,0,1,0-.969-2.64,11.275,11.275,0,0,0-7.367,10.55v13.344c-2.713,1.217-5.486,4.513-7.873,9.448a47.777,47.777,0,0,0-4.655,19.781c0,6.512,1.4,10.518,4.407,12.607,2.467,1.714,5.625,1.869,9,1.881v4.2h-12.1a1.406,1.406,0,0,0,0,2.813h93.089a1.406,1.406,0,0,0,0-2.813Z" transform="translate(-860 -1765)"/></svg>