<svg xmlns="http://www.w3.org/2000/svg" width="29.935" height="24.323" viewBox="0 0 29.935 24.323"><path d="M1869.133,59.879a12.8,12.8,0,0,1-3.536.97,6.11,6.11,0,0,0,2.7-3.392,12.273,12.273,0,0,1-3.892,1.485,6.136,6.136,0,0,0-10.615,4.2,6.321,6.321,0,0,0,.142,1.4,17.373,17.373,0,0,1-12.65-6.419,6.139,6.139,0,0,0,1.886,8.2,6.066,6.066,0,0,1-2.773-.756v.068a6.166,6.166,0,0,0,4.917,6.03,6.147,6.147,0,0,1-1.609.2,5.451,5.451,0,0,1-1.162-.1,6.2,6.2,0,0,0,5.735,4.275,12.333,12.333,0,0,1-7.609,2.618,11.448,11.448,0,0,1-1.469-.085,17.269,17.269,0,0,0,9.415,2.755c11.293,0,17.467-9.355,17.467-17.464,0-.271-.01-.533-.023-.793A12.24,12.24,0,0,0,1869.133,59.879Z" transform="translate(-1839.198 -57)"/></svg>