<svg xmlns="http://www.w3.org/2000/svg" width="120.149" height="120.149" viewBox="0 0 120.149 120.149"><defs><style>.a{fill:#fff;}.b,.f{fill:none;}.b{stroke:#b9b8b8;stroke-linejoin:round;stroke-width:2px;}.c{fill:#b9b8b8;}.d{fill:#2588ad;}.e{stroke:none;}</style></defs><g transform="translate(2 2)"><g transform="translate(0)"><circle class="a" cx="58.075" cy="58.075" r="58.075"/><g class="b"><circle class="e" cx="58.075" cy="58.075" r="58.075"/><circle class="f" cx="58.075" cy="58.075" r="59.075"/></g></g><g transform="translate(29.463 26.038)"><path class="c" d="M568.659,248.383V233.55c0-.3,0-.6,0-.894.011-.592-.082-1.337.762-1.353.942-.017.69.8.691,1.343.017,4.619.006,9.237.015,13.856a3.844,3.844,0,0,0,.137,1.649c.645.106,1.089-.371,1.617-.587.432-.177.884-.361,1.156.171.247.483-.036.872-.443,1.127a16.8,16.8,0,0,1-1.559.87,1.433,1.433,0,0,0-.92,1.535c.035.394,0,.794.006,1.191.01,1.541.095,1.644,1.678,1.755a20.039,20.039,0,0,1,9.744,3.3,1.793,1.793,0,0,0,1.917.2c1.132-.5,2.28-.975,3.432-1.43a3.77,3.77,0,0,1,3.558.373,2.87,2.87,0,0,1,.64,4.487,7.077,7.077,0,0,1-1.485,1.23c-6.433,4.21-12.849,8.448-19.289,12.647a7.44,7.44,0,0,1-5.973,1.05c-5.447-1.271-10.9-2.51-16.353-3.762-.189-.043-.378-.079-.537-.111-.407.351-.246.773-.27,1.148a2.27,2.27,0,0,1-2.208,2.32,6.591,6.591,0,0,1-1.042.008c-.73-.049-1.293.05-1.212,1,.061.721-.46.986-1.037,1q-2.978.057-5.957,0a1.019,1.019,0,0,1-1.04-1.056c-.022-.346-.013-.695-.013-1.042q0-11.025,0-22.049c0-.3.005-.6,0-.894a.9.9,0,0,1,.983-1.041q3.054-.015,6.108,0c.5,0,.918.21.936.752.031.92.6,1.021,1.315.98.2-.012.4,0,.6,0,1.832.03,2.413.521,2.545,2.331.051.695.263.971.971.955,1.44-.032,2.881.017,4.32-.011a14.575,14.575,0,0,1,4.122.468,2.261,2.261,0,0,0,1.84-.239,21.587,21.587,0,0,1,6.982-2.447c.742-.13,1.482-.109,2.22-.19.689-.076,1.071-.375,1.046-1.145-.1-3.083.5-2.414-2.156-3.921-.173-.1-.352-.184-.522-.287-.415-.249-.752-.558-.433-1.076.289-.47.722-.419,1.183-.247C567.337,247.731,567.768,248.291,568.659,248.383Zm-.921,15.4v0c1.689,0,3.378.025,5.066-.009a1.926,1.926,0,1,0,.224-3.845,7.431,7.431,0,0,0-1.189-.03c-2.682,0-5.365-.04-8.047.011a19.258,19.258,0,0,1-6.278-1.024,17.551,17.551,0,0,0-2.008-.525,38.89,38.89,0,0,0-6.978-.29c-1.318-.019-1.337.016-1.341,1.307q-.015,4.992,0,9.983c0,1.2.039,1.241,1.167,1.5,5.307,1.223,10.625,2.4,15.918,3.68a6.621,6.621,0,0,0,5.512-.966q9.563-6.314,19.155-12.586a4.769,4.769,0,0,0,.733-.505,1.615,1.615,0,0,0,.63-1.71,1.764,1.764,0,0,0-1.394-1.212,2.626,2.626,0,0,0-1.6.141c-3.342,1.389-6.693,2.758-10.04,4.135a1.718,1.718,0,0,0-1.149,1.072,3.273,3.273,0,0,1-3.54,2.352c-2.93,0-5.861.014-8.791-.005a7.212,7.212,0,0,0-3.7.961c-.3.173-.591.365-.89.542a.626.626,0,0,1-.809-.152.7.7,0,0,1-.091-.832,1.61,1.61,0,0,1,.646-.6,7.484,7.484,0,0,1,4.172-1.387C564.658,263.762,566.2,263.786,567.738,263.786Zm-31.585.6q0,3.278,0,6.555c0,1.391.013,2.782,0,4.172-.007.6.2.933.854.923,1.192-.019,2.384-.009,3.576,0,.508,0,.882-.135.883-.735,0-.3.009-.6.009-.894V254.739c0-.149.005-.3,0-.448-.047-1.123-.108-1.2-1.187-1.232-.992-.025-1.987-.02-2.98,0-1.118.021-1.142.034-1.147,1.2C536.145,257.632,536.154,261.01,536.153,264.387Zm9.565.108v-4.466c0-1.34.022-2.68-.01-4.019-.025-1.034-.192-1.169-1.241-1.224-.2-.01-.4-.008-.6,0-1.078.033-1.127.044-1.129,1.071q-.02,8.634-.006,17.268a2.923,2.923,0,0,0,.038.591c.03.135.11.343.2.367a4.08,4.08,0,0,0,2.2,0c.674-.209.533-.874.535-1.4C545.723,269.953,545.717,267.224,545.718,264.5Zm14.067-6.549a14.761,14.761,0,0,0,4.424.479c2.48-.02,4.961.05,7.439-.025,1.746-.052,3.251.277,4.266,1.835.177.272.361.437.724.278a33.136,33.136,0,0,0,3.9-1.74C575.164,254.724,565.256,254.481,559.785,257.947Z" transform="translate(-534.675 -213.625)"/><path class="c" d="M579.479,218.22c.006,3.732-1.77,6.106-4.064,8.2a.867.867,0,0,1-1.317.029,12.044,12.044,0,0,1-3.962-6.133,8.413,8.413,0,0,1,.5-4.935,11.123,11.123,0,0,1,3.159-4.438c.762-.669,1.272-.731,1.948-.074C577.928,213,579.6,215.4,579.479,218.22Zm-3.943,5.456a6.027,6.027,0,0,0,2.441-4.423,8.231,8.231,0,0,0-2.435-6.459c-.642-.724-.851-.755-1.527,0a9.2,9.2,0,0,0-2.561,5.244c-.227,2.353.842,4.238,2.363,6.035a1.789,1.789,0,0,0,.233-1.277c.02-1.535,0-3.069.016-4.6,0-.525-.11-1.215.729-1.163.744.046.737.673.738,1.232,0,.841,0,1.683,0,2.524Z" transform="translate(-540.11 -210.406)"/><path class="c" d="M561.46,223.856c4.5-.2,7.749,2.415,9.137,6.945.827,2.7.853,2.769-1.913,3.315-2.96.584-5.832.409-8.279-1.652a10.489,10.489,0,0,1-3.541-6.517c-.18-1.068.005-1.229,1.079-1.586A9.208,9.208,0,0,1,561.46,223.856Zm7.451,7.286c.067-.132.116-.183.106-.216-1.518-4.99-5.424-6.272-9.92-5.365-.613.124-.816.384-.611,1.037a13.7,13.7,0,0,0,1.76,3.581,7.03,7.03,0,0,0,7.78,2.342,14.151,14.151,0,0,0-2.484-1.615c-.873-.566-1.774-1.087-2.661-1.632a.675.675,0,1,1,.668-1.163c.49.237.959.516,1.436.782C566.3,229.628,567.529,230.524,568.912,231.142Z" transform="translate(-538.084 -212.475)"/><path class="c" d="M587.494,223.848a10.21,10.21,0,0,1,3.581.588c.62.189.961.553.837,1.192-.629,3.235-1.992,6.038-4.984,7.72-2.742,1.542-5.616,1.188-8.49.359a1.032,1.032,0,0,1-.76-1.381c.928-4.591,3.934-8.672,9.307-8.477C587.083,223.852,587.182,223.848,587.494,223.848Zm-7.677,7.293c1.674-.968,3.165-1.826,4.652-2.692a2.085,2.085,0,0,1,.929-.434c.3-.015.612-.025.778.288a.6.6,0,0,1-.195.794c-.558.405-1.143.778-1.732,1.14-1.243.761-2.5,1.508-3.743,2.26a5.565,5.565,0,0,0,1.922.382,7.674,7.674,0,0,0,7.727-6.239c.088-.574-.041-.911-.671-1.082a11.25,11.25,0,0,0-3.984-.174A6.862,6.862,0,0,0,579.817,231.141Z" transform="translate(-541.292 -212.474)"/><path class="d" d="M592.9,245a6.571,6.571,0,1,1-13.141.058,6.646,6.646,0,0,1,6.484-6.629A6.58,6.58,0,0,1,592.9,245Zm-1.467.1a5.073,5.073,0,0,0-5.029-5.2,5.164,5.164,0,1,0,5.029,5.2Z" transform="translate(-541.62 -214.723)"/><path class="d" d="M562.56,251.692a6.631,6.631,0,1,1-.023-13.262,6.631,6.631,0,0,1,.023,13.262Zm5.125-6.7a5.172,5.172,0,1,0-10.342.217,5.172,5.172,0,0,0,10.342-.217Z" transform="translate(-537.944 -214.723)"/><path class="a" d="M570.015,268.556c-1.54,0-3.08-.025-4.619.007a7.484,7.484,0,0,0-4.172,1.387,1.609,1.609,0,0,0-.646.6.7.7,0,0,0,.091.832.626.626,0,0,0,.809.152c.3-.178.588-.37.89-.542a7.211,7.211,0,0,1,3.7-.961c2.93.019,5.861.006,8.791.005a3.273,3.273,0,0,0,3.54-2.352,1.718,1.718,0,0,1,1.149-1.072c3.347-1.377,6.7-2.746,10.04-4.135a2.626,2.626,0,0,1,1.6-.141,1.764,1.764,0,0,1,1.394,1.212,1.615,1.615,0,0,1-.63,1.71,4.772,4.772,0,0,1-.733.505q-9.579,6.29-19.155,12.586a6.621,6.621,0,0,1-5.512.966c-5.292-1.283-10.611-2.457-15.918-3.68-1.128-.26-1.164-.3-1.167-1.5q-.015-4.991,0-9.983c0-1.291.023-1.326,1.341-1.307a38.89,38.89,0,0,1,6.977.29,17.552,17.552,0,0,1,2.008.525,19.258,19.258,0,0,0,6.278,1.024c2.682-.051,5.364-.014,8.047-.011a7.43,7.43,0,0,1,1.189.03,1.926,1.926,0,1,1-.224,3.845c-1.688.035-3.377.009-5.066.009Z" transform="translate(-536.952 -218.394)"/><path class="a" d="M536.422,268.345c0-3.377-.008-6.755,0-10.132.005-1.164.029-1.177,1.147-1.2.992-.018,1.987-.023,2.979,0,1.079.028,1.14.109,1.187,1.232.007.149,0,.3,0,.448v19.667c0,.3-.009.6-.009.894,0,.6-.375.738-.883.735-1.192-.007-2.384-.016-3.576,0-.658.01-.86-.321-.854-.923.015-1.391,0-2.782,0-4.172Q536.421,271.623,536.422,268.345Z" transform="translate(-534.944 -217.583)"/><path class="a" d="M547.185,268.77c0,2.729.005,5.458,0,8.187,0,.53.14,1.194-.535,1.4a4.081,4.081,0,0,1-2.2,0c-.095-.024-.175-.232-.2-.367a2.923,2.923,0,0,1-.038-.591q0-8.634.006-17.268c0-1.027.052-1.038,1.129-1.071.2-.006.4-.008.6,0,1.049.055,1.216.19,1.241,1.224.032,1.339.009,2.679.01,4.019Q547.186,266.536,547.185,268.77Z" transform="translate(-536.142 -217.899)"/><path class="a" d="M564.357,262.358c5.471-3.466,15.379-3.222,20.754.827a33.136,33.136,0,0,1-3.9,1.74c-.363.159-.547-.007-.724-.278-1.015-1.558-2.52-1.887-4.266-1.835-2.478.074-4.959,0-7.439.025A14.761,14.761,0,0,1,564.357,262.358Z" transform="translate(-539.247 -218.036)"/><path class="a" d="M575.8,224.01v-2.89c0-.842,0-1.683,0-2.524,0-.558.005-1.186-.738-1.232-.839-.052-.725.639-.729,1.163-.014,1.535,0,3.069-.016,4.6a1.789,1.789,0,0,1-.233,1.277c-1.521-1.8-2.59-3.682-2.363-6.035a9.2,9.2,0,0,1,2.561-5.244c.676-.756.885-.725,1.527,0a8.231,8.231,0,0,1,2.435,6.459A6.027,6.027,0,0,1,575.8,224.01Z" transform="translate(-540.377 -210.74)"/><path class="a" d="M569.2,231.407c-1.382-.618-2.61-1.513-3.924-2.249-.476-.266-.946-.545-1.436-.782a.675.675,0,1,0-.668,1.163c.887.545,1.788,1.066,2.661,1.632a14.15,14.15,0,0,1,2.484,1.615,7.03,7.03,0,0,1-7.78-2.342,13.7,13.7,0,0,1-1.76-3.581c-.206-.653,0-.914.611-1.037,4.5-.907,8.4.376,9.92,5.365C569.32,231.224,569.271,231.275,569.2,231.407Z" transform="translate(-538.376 -212.74)"/><path class="a" d="M580.214,231.407a6.862,6.862,0,0,1,5.684-5.758,11.249,11.249,0,0,1,3.984.174c.63.171.759.508.671,1.082a7.674,7.674,0,0,1-7.727,6.239,5.565,5.565,0,0,1-1.922-.382c1.248-.752,2.5-1.5,3.743-2.26.589-.361,1.173-.734,1.732-1.14a.6.6,0,0,0,.195-.794c-.166-.313-.476-.3-.778-.288a2.085,2.085,0,0,0-.929.434C583.379,229.58,581.888,230.439,580.214,231.407Z" transform="translate(-541.69 -212.74)"/><path class="a" d="M591.7,245.369a5.105,5.105,0,1,1-5.029-5.2A5.112,5.112,0,0,1,591.7,245.369Zm-2.81,1.153a2.011,2.011,0,0,0-1.381-1.793,6.074,6.074,0,0,0-1.022-.151c-.255-.035-.511-.1-.524-.408-.018-.393.28-.481.59-.5.446-.021.893-.014,1.339-.019s.811-.123.849-.628a.685.685,0,0,0-.7-.785.8.8,0,0,1-.841-.823c-.043-.338-.342-.469-.673-.442-.272.022-.524.184-.528.438-.01.647-.415.933-.891,1.247a1.739,1.739,0,0,0-.62,2,1.714,1.714,0,0,0,1.571,1.367c.146.022.3.012.445.021.354.023.777.042.725.519-.051.459-.5.387-.835.4-.4.019-.794,0-1.189.03a.7.7,0,0,0-.739.756.6.6,0,0,0,.654.651c.533,0,.738.218.883.755.158.582,1.006.7,1.084.243.146-.861.82-1.174,1.315-1.689A2.083,2.083,0,0,0,588.892,246.522Z" transform="translate(-541.887 -214.989)"/><path class="a" d="M567.948,245.258a5.172,5.172,0,1,1-5.208-5.11A5.338,5.338,0,0,1,567.948,245.258Zm-5.281,4.4c.354.025.658-.089.688-.318.1-.779.735-1.092,1.189-1.589a1.889,1.889,0,0,0-1.09-3.116c-.333-.076-.689-.054-1.03-.1a.392.392,0,0,1-.35-.409.382.382,0,0,1,.348-.409c.541-.043,1.085-.049,1.629-.063.423-.012.813-.106.909-.582a.649.649,0,0,0-.633-.825c-.508-.054-.71-.261-.906-.758-.287-.729-1.056-.74-1.271-.038a2.286,2.286,0,0,1-.927,1.236,1.733,1.733,0,0,0-.6,2,1.821,1.821,0,0,0,1.617,1.335c.245.033.5.013.741.037.267.027.491.159.5.447s-.229.426-.49.441c-.544.029-1.09.006-1.633.047-.512.038-.954.348-.739.854.321.757,1.644.577,1.733,1.67C562.359,249.588,562.607,249.634,562.666,249.657Z" transform="translate(-538.207 -214.987)"/><path class="d" d="M589.423,246.67a2.084,2.084,0,0,1-.494,1.2c-.495.515-1.168.828-1.315,1.689-.078.456-.925.339-1.084-.243-.145-.536-.35-.754-.883-.755a.6.6,0,0,1-.654-.651.7.7,0,0,1,.739-.756c.4-.03.794-.01,1.189-.03.335-.017.784.055.835-.4.052-.477-.371-.5-.725-.519-.148-.009-.3,0-.445-.021a1.714,1.714,0,0,1-1.571-1.367,1.739,1.739,0,0,1,.62-2c.475-.314.881-.6.891-1.247,0-.255.256-.416.528-.438.331-.026.629.1.673.442a.8.8,0,0,0,.841.823.685.685,0,0,1,.7.785c-.038.505-.414.623-.849.628s-.893,0-1.339.019c-.31.014-.607.1-.59.5.014.312.269.373.524.408a6.073,6.073,0,0,1,1.022.151A2.011,2.011,0,0,1,589.423,246.67Z" transform="translate(-542.418 -215.137)"/><path class="d" d="M563.2,249.8c-.059-.024-.307-.069-.312-.136-.09-1.093-1.412-.913-1.733-1.67-.215-.507.228-.816.739-.854.542-.041,1.089-.018,1.633-.047.26-.014.5-.142.49-.441s-.231-.42-.5-.447c-.245-.025-.5,0-.741-.037a1.821,1.821,0,0,1-1.617-1.335,1.733,1.733,0,0,1,.6-2,2.286,2.286,0,0,0,.927-1.236c.216-.7.985-.691,1.271.038.2.5.4.7.906.758a.649.649,0,0,1,.633.825c-.1.476-.486.57-.909.582-.544.014-1.088.02-1.629.063a.382.382,0,0,0-.348.409.392.392,0,0,0,.35.409c.342.045.7.023,1.03.1a1.889,1.889,0,0,1,1.09,3.116c-.454.5-1.09.81-1.189,1.589C563.857,249.712,563.553,249.825,563.2,249.8Z" transform="translate(-538.739 -215.131)"/></g></g></svg>