<svg xmlns="http://www.w3.org/2000/svg" width="77.757" height="74.12" viewBox="0 0 77.757 74.12"><defs><style>.a{fill:#2b2b2b;}</style></defs><g transform="translate(-541 -1764.887)"><path class="a" d="M579.879,1832.932a1.22,1.22,0,0,1-.53-.121l-37.663-18.225a1.215,1.215,0,0,1,1.058-2.188l37.135,17.969,37.133-17.967a1.215,1.215,0,1,1,1.058,2.188l-37.663,18.224a1.217,1.217,0,0,1-.528.12Z"/><path class="a" d="M579.879,1839.007a1.205,1.205,0,0,1-.53-.122l-37.663-18.224a1.215,1.215,0,1,1,1.058-2.188l37.135,17.969,37.133-17.968a1.216,1.216,0,0,1,1.058,2.189l-37.663,18.223a1.2,1.2,0,0,1-.528.121Z"/><path class="a" d="M542.216,1820.783a1.214,1.214,0,0,1-1.215-1.215v-6.075a1.215,1.215,0,1,1,2.43,0v6.075A1.214,1.214,0,0,1,542.216,1820.783Z"/><path class="a" d="M617.542,1820.783a1.214,1.214,0,0,1-1.215-1.215v-6.075a1.215,1.215,0,1,1,2.43,0v6.075A1.214,1.214,0,0,1,617.542,1820.783Z"/><path class="a" d="M579.879,1839.007a1.214,1.214,0,0,1-1.215-1.215v-6.075a1.215,1.215,0,1,1,2.43,0v6.075A1.214,1.214,0,0,1,579.879,1839.007Z"/><path class="a" d="M592.065,1830.09a1.214,1.214,0,0,1-.014-2.429h.014a1.214,1.214,0,1,1,0,2.429Z"/><path class="a" d="M610.289,1821.272a1.215,1.215,0,0,1-.014-2.43h.014a1.215,1.215,0,1,1,0,2.43Z"/><path class="a" d="M604.214,1824.211a1.215,1.215,0,0,1-.013-2.43h.013a1.215,1.215,0,1,1,0,2.43Z"/><path class="a" d="M598.139,1827.151a1.214,1.214,0,0,1-.013-2.429h.013a1.214,1.214,0,1,1,0,2.429Z"/><path class="a" d="M585.99,1833.031a1.215,1.215,0,0,1-.013-2.43h.013a1.215,1.215,0,1,1,0,2.43Z"/><path class="a" d="M567.766,1830.09a1.214,1.214,0,1,1-.013-2.429h.013a1.214,1.214,0,1,1,0,2.429Z"/><path class="a" d="M549.542,1821.272a1.215,1.215,0,0,1-.013-2.43h.013a1.215,1.215,0,1,1,0,2.43Z"/><path class="a" d="M555.617,1824.211a1.215,1.215,0,0,1-.014-2.43h.014a1.215,1.215,0,0,1,0,2.43Z"/><path class="a" d="M561.691,1827.151a1.214,1.214,0,1,1-.013-2.429h.013a1.214,1.214,0,1,1,0,2.429Z"/><path class="a" d="M573.841,1833.031a1.215,1.215,0,0,1-.014-2.43h.014a1.215,1.215,0,1,1,0,2.43Z"/><path class="a" d="M562.728,1804.786a1.215,1.215,0,0,1-.53-2.309l5-2.42a1.215,1.215,0,1,1,1.058,2.188l-5,2.42A1.223,1.223,0,0,1,562.728,1804.786Z"/><path class="a" d="M542.217,1814.708a1.214,1.214,0,0,1-.53-2.308l13.846-6.7a1.215,1.215,0,1,1,1.058,2.188l-13.845,6.7a1.218,1.218,0,0,1-.529.122Z"/><path class="a" d="M597.025,1804.782a1.218,1.218,0,0,1-.528-.121l-5-2.418a1.215,1.215,0,1,1,1.058-2.188l5,2.417a1.216,1.216,0,0,1-.53,2.31Z"/><path class="a" d="M617.541,1814.708a1.211,1.211,0,0,1-.529-.122l-13.848-6.7a1.215,1.215,0,1,1,1.059-2.188l13.847,6.7a1.216,1.216,0,0,1-.529,2.31Z"/><path class="a" d="M579.879,1820.785a1.215,1.215,0,0,1-.543-.127l-12.15-6.076a1.216,1.216,0,0,1,1.088-2.174l11.605,5.8,11.606-5.8a1.216,1.216,0,0,1,1.088,2.174l-12.15,6.076a1.222,1.222,0,0,1-.544.127Z"/><path class="a" d="M579.879,1779.469a1.216,1.216,0,0,1-.543-.128l-12.15-6.076a1.215,1.215,0,1,1,1.088-2.173l11.605,5.8,11.606-5.8a1.215,1.215,0,1,1,1.088,2.173l-12.15,6.076a1.223,1.223,0,0,1-.544.128Z"/><path class="a" d="M592.027,1773.394a1.222,1.222,0,0,1-.542-.127l-11.606-5.806-11.606,5.8a1.215,1.215,0,1,1-1.088-2.173l12.15-6.076a1.209,1.209,0,0,1,1.087,0l12.149,6.076a1.215,1.215,0,0,1-.544,2.3Z"/><path class="a" d="M579.879,1820.785a1.214,1.214,0,0,1-1.215-1.215v-41.317a1.215,1.215,0,1,1,2.43,0v41.317A1.214,1.214,0,0,1,579.879,1820.785Z"/><path class="a" d="M592.028,1814.709a1.214,1.214,0,0,1-1.215-1.215v-41.317a1.215,1.215,0,0,1,2.43,0v41.317A1.214,1.214,0,0,1,592.028,1814.709Z"/><path class="a" d="M567.73,1814.709a1.214,1.214,0,0,1-1.215-1.215v-41.317a1.215,1.215,0,0,1,2.43,0v41.317A1.214,1.214,0,0,1,567.73,1814.709Z"/><path class="a" d="M576.232,1812.882a1.209,1.209,0,0,1-.542-.128l-4.861-2.431a1.215,1.215,0,1,1,1.087-2.173l4.861,2.431a1.215,1.215,0,0,1-.545,2.3Z"/><path class="a" d="M576.232,1808.022a1.221,1.221,0,0,1-.542-.127l-4.861-2.431a1.215,1.215,0,0,1,1.087-2.174l4.861,2.431a1.214,1.214,0,0,1-.545,2.3Z"/><path class="a" d="M576.232,1803.162a1.221,1.221,0,0,1-.542-.127l-4.861-2.431a1.215,1.215,0,0,1,1.087-2.174l4.861,2.431a1.214,1.214,0,0,1-.545,2.3Z"/><path class="a" d="M576.232,1798.3a1.222,1.222,0,0,1-.542-.128l-4.861-2.431a1.215,1.215,0,1,1,1.087-2.173l4.861,2.43a1.215,1.215,0,0,1-.545,2.3Z"/><path class="a" d="M576.232,1793.443a1.208,1.208,0,0,1-.542-.128l-4.861-2.431a1.215,1.215,0,1,1,1.087-2.173l4.861,2.431a1.215,1.215,0,0,1-.545,2.3Z"/><path class="a" d="M576.232,1788.583a1.221,1.221,0,0,1-.542-.127l-4.861-2.432a1.215,1.215,0,0,1,1.087-2.173l4.861,2.431a1.214,1.214,0,0,1-.545,2.3Z"/><path class="a" d="M576.232,1783.723a1.219,1.219,0,0,1-.542-.127l-4.861-2.431a1.215,1.215,0,0,1,1.087-2.174l4.861,2.431a1.214,1.214,0,0,1-.545,2.3Z"/><path class="a" d="M583.526,1812.882a1.215,1.215,0,0,1-.545-2.3l4.861-2.432a1.215,1.215,0,0,1,1.087,2.174l-4.861,2.431A1.2,1.2,0,0,1,583.526,1812.882Z"/><path class="a" d="M583.526,1808.022a1.215,1.215,0,0,1-.545-2.3l4.861-2.431a1.215,1.215,0,0,1,1.087,2.173l-4.861,2.432a1.212,1.212,0,0,1-.542.128Z"/><path class="a" d="M583.526,1803.163a1.216,1.216,0,0,1-.545-2.3l4.861-2.431a1.215,1.215,0,0,1,1.087,2.174l-4.861,2.431A1.213,1.213,0,0,1,583.526,1803.163Z"/><path class="a" d="M583.526,1798.3a1.216,1.216,0,0,1-.545-2.3l4.861-2.431a1.215,1.215,0,0,1,1.087,2.174l-4.861,2.431A1.212,1.212,0,0,1,583.526,1798.3Z"/><path class="a" d="M583.526,1793.443a1.215,1.215,0,0,1-.545-2.3l4.861-2.432a1.215,1.215,0,0,1,1.087,2.174l-4.861,2.431a1.2,1.2,0,0,1-.542.129Z"/><path class="a" d="M583.526,1788.583a1.215,1.215,0,0,1-.545-2.3l4.861-2.431a1.215,1.215,0,1,1,1.087,2.173l-4.861,2.432a1.211,1.211,0,0,1-.542.128Z"/><path class="a" d="M583.526,1783.724a1.216,1.216,0,0,1-.545-2.3l4.861-2.431a1.215,1.215,0,0,1,1.087,2.174l-4.861,2.431A1.212,1.212,0,0,1,583.526,1783.724Z"/><path class="a" d="M600.533,1797.717c-.96.589-2.43,5.264-2.43,7.268a2.43,2.43,0,1,0,4.86,0C602.963,1802.981,601.493,1798.306,600.533,1797.717Zm0,12.128a4.865,4.865,0,0,1-4.86-4.86c0-1.386,1.4-9.725,4.86-9.725s4.86,8.339,4.86,9.725A4.865,4.865,0,0,1,600.533,1809.845Z"/><path class="a" d="M600.533,1814.7a1.214,1.214,0,0,1-1.215-1.215v-8.5a1.215,1.215,0,0,1,2.43,0v8.5A1.214,1.214,0,0,1,600.533,1814.7Z"/><path class="a" d="M559.225,1797.717c-.96.589-2.43,5.264-2.43,7.268a2.43,2.43,0,1,0,4.86,0C561.655,1802.981,560.185,1798.306,559.225,1797.717Zm0,12.128a4.865,4.865,0,0,1-4.86-4.86c0-1.386,1.4-9.725,4.86-9.725s4.86,8.339,4.86,9.725A4.865,4.865,0,0,1,559.225,1809.845Z"/><path class="a" d="M559.225,1814.7a1.214,1.214,0,0,1-1.215-1.215v-8.5a1.215,1.215,0,0,1,2.43,0v8.5A1.214,1.214,0,0,1,559.225,1814.7Z"/></g></svg>