<svg xmlns="http://www.w3.org/2000/svg" xmlns:xlink="http://www.w3.org/1999/xlink" width="447.697" height="384.273" viewBox="0 0 447.697 384.273"><defs><style>.a,.d{fill:none;}.b{opacity:0.14;}.c{clip-path:url(#a);}.d{stroke:#000;stroke-miterlimit:10;stroke-width:2.547px;}.e{clip-path:url(#g);}</style><clipPath id="a"><rect class="a" width="62.599" height="62.522"/></clipPath><clipPath id="g"><rect class="a" width="62.58" height="62.522"/></clipPath></defs><g class="b" transform="translate(-7.662 -610.75)"><g transform="translate(9.225 803.716)"><g class="c"><line class="d" x2="62.541" y2="62.522" transform="translate(0.058 0)"/><line class="d" x1="62.541" y2="62.522" transform="translate(0.058)"/><path class="d" d="M-11.033,905.163,20.237,873.9l-31.27-31.261" transform="translate(-5.873 -842.642)"/><path class="d" d="M98.471,842.665,67.2,873.926l31.27,31.261" transform="translate(-19.005 -842.646)"/><path class="d" d="M9.306,822.332l31.27,31.261,31.27-31.261" transform="translate(-9.287 -839.232)"/><path class="d" d="M71.824,931.8l-31.27-31.261L9.283,931.8" transform="translate(-9.283 -852.361)"/><path class="d" d="M-10.514,812.425,37.25,860.174l47.764-47.749" transform="translate(-5.96 -837.569)"/><path class="d" d="M-10.514,792.878,37.25,840.627l47.764-47.749" transform="translate(-5.96 -834.288)"/><path class="d" d="M85.013,937.782,37.25,890.033l-47.764,47.749" transform="translate(-5.96 -850.597)"/><path class="d" d="M85.013,957.329,37.25,909.579l-47.764,47.749" transform="translate(-5.96 -853.878)"/><path class="d" d="M104.764,822.538,57,870.287l47.764,47.749" transform="translate(-17.293 -839.267)"/><path class="d" d="M124.317,822.538,76.554,870.287l47.764,47.749" transform="translate(-20.575 -839.267)"/><path class="d" d="M-20.631,918.036l47.764-47.749-47.764-47.749" transform="translate(-4.262 -839.267)"/><path class="d" d="M-40.183,918.036,7.58,870.287l-47.764-47.749" transform="translate(-0.98 -839.267)"/></g></g><g transform="translate(200.11 803.716)"><g class="c"><line class="d" x2="62.541" y2="62.522" transform="translate(0.058 0)"/><line class="d" x1="62.541" y2="62.522" transform="translate(0.058)"/><path class="d" d="M218.358,905.163l31.27-31.261-31.27-31.261" transform="translate(-235.263 -842.642)"/><path class="d" d="M327.861,842.665l-31.27,31.261,31.27,31.261" transform="translate(-248.396 -842.646)"/><path class="d" d="M238.7,822.332l31.27,31.261,31.27-31.261" transform="translate(-238.677 -839.232)"/><path class="d" d="M301.214,931.8l-31.27-31.261L238.674,931.8" transform="translate(-238.674 -852.361)"/><path class="d" d="M218.877,812.425l47.764,47.749L314.4,812.425" transform="translate(-235.35 -837.569)"/><path class="d" d="M218.877,792.878l47.764,47.749L314.4,792.878" transform="translate(-235.35 -834.288)"/><path class="d" d="M314.4,937.782,266.64,890.033l-47.764,47.749" transform="translate(-235.35 -850.597)"/><path class="d" d="M314.4,957.329,266.64,909.579l-47.764,47.749" transform="translate(-235.35 -853.878)"/><path class="d" d="M334.155,822.538l-47.764,47.749,47.764,47.749" transform="translate(-246.684 -839.267)"/><path class="d" d="M353.708,822.538l-47.764,47.749,47.764,47.749" transform="translate(-249.966 -839.267)"/><path class="d" d="M208.76,918.036l47.764-47.749L208.76,822.538" transform="translate(-233.652 -839.267)"/><path class="d" d="M189.207,918.036l47.764-47.749-47.764-47.749" transform="translate(-230.37 -839.267)"/></g></g><g transform="translate(263.904 738.794)"><g class="c"><line class="d" x2="62.541" y2="62.522" transform="translate(0.058 0)"/><line class="d" x1="62.541" y2="62.522" transform="translate(0.058)"/><path class="d" d="M295.021,827.145l31.27-31.261-31.27-31.261" transform="translate(-311.926 -764.623)"/><path class="d" d="M404.524,764.646l-31.27,31.261,31.27,31.261" transform="translate(-325.059 -764.627)"/><path class="d" d="M315.36,744.313l31.27,31.261,31.27-31.261" transform="translate(-315.341 -761.214)"/><path class="d" d="M377.878,853.783l-31.27-31.261-31.27,31.261" transform="translate(-315.337 -774.342)"/><path class="d" d="M295.54,734.406,343.3,782.155l47.764-47.749" transform="translate(-312.014 -759.551)"/><path class="d" d="M295.54,714.859,343.3,762.608l47.764-47.749" transform="translate(-312.014 -756.27)"/><path class="d" d="M391.067,859.763,343.3,812.014,295.54,859.763" transform="translate(-312.014 -772.578)"/><path class="d" d="M391.067,879.31,343.3,831.561,295.54,879.31" transform="translate(-312.014 -775.859)"/><path class="d" d="M410.818,744.519l-47.764,47.749,47.764,47.749" transform="translate(-323.347 -761.248)"/><path class="d" d="M430.371,744.519l-47.764,47.749,47.764,47.749" transform="translate(-326.629 -761.248)"/><path class="d" d="M285.423,840.017l47.764-47.749-47.764-47.749" transform="translate(-310.315 -761.248)"/><path class="d" d="M265.87,840.017l47.764-47.749L265.87,744.519" transform="translate(-307.033 -761.248)"/></g></g><g transform="translate(264.204 867.714)"><g class="c"><line class="d" x2="62.541" y2="62.522" transform="translate(0.058 0)"/><line class="d" x1="62.541" y2="62.522" transform="translate(0.058)"/><path class="d" d="M295.381,982.071l31.27-31.261-31.27-31.261" transform="translate(-312.287 -919.549)"/><path class="d" d="M404.885,919.572l-31.27,31.261,31.27,31.261" transform="translate(-325.419 -919.553)"/><path class="d" d="M315.72,899.239l31.27,31.261,31.27-31.261" transform="translate(-315.701 -916.14)"/><path class="d" d="M378.238,1008.71l-31.27-31.261L315.7,1008.71" transform="translate(-315.697 -929.268)"/><path class="d" d="M295.9,889.332l47.764,47.749,47.764-47.749" transform="translate(-312.374 -914.477)"/><path class="d" d="M295.9,869.785l47.764,47.749,47.764-47.749" transform="translate(-312.374 -911.196)"/><path class="d" d="M391.427,1014.689,343.664,966.94,295.9,1014.689" transform="translate(-312.374 -927.504)"/><path class="d" d="M391.427,1034.236l-47.764-47.749L295.9,1034.236" transform="translate(-312.374 -930.785)"/><path class="d" d="M411.179,899.446l-47.763,47.749,47.763,47.749" transform="translate(-323.707 -916.175)"/><path class="d" d="M430.731,899.446l-47.764,47.749,47.764,47.749" transform="translate(-326.989 -916.175)"/><path class="d" d="M285.784,994.944l47.764-47.749-47.764-47.749" transform="translate(-310.676 -916.175)"/><path class="d" d="M266.231,994.944l47.764-47.749-47.764-47.749" transform="translate(-307.394 -916.175)"/></g></g><g transform="translate(200.11 674.339)"><g class="c"><line class="d" x2="62.541" y2="62.522" transform="translate(0.058 0)"/><line class="d" x1="62.541" y2="62.522" transform="translate(0.058)"/><path class="d" d="M218.358,749.688l31.27-31.261-31.27-31.261" transform="translate(-235.263 -687.166)"/><path class="d" d="M327.861,687.189l-31.27,31.261,31.27,31.261" transform="translate(-248.396 -687.17)"/><path class="d" d="M238.7,666.856l31.27,31.261,31.27-31.261" transform="translate(-238.677 -683.757)"/><path class="d" d="M301.214,776.327l-31.27-31.261-31.27,31.261" transform="translate(-238.674 -696.885)"/><path class="d" d="M218.877,656.949,266.64,704.7,314.4,656.949" transform="translate(-235.35 -682.094)"/><path class="d" d="M218.877,637.4l47.764,47.749L314.4,637.4" transform="translate(-235.35 -678.813)"/><path class="d" d="M314.4,782.306,266.64,734.557l-47.764,47.749" transform="translate(-235.35 -695.121)"/><path class="d" d="M314.4,801.853,266.64,754.1l-47.764,47.749" transform="translate(-235.35 -698.402)"/><path class="d" d="M334.155,667.062l-47.764,47.749,47.764,47.749" transform="translate(-246.684 -683.791)"/><path class="d" d="M353.708,667.062l-47.764,47.749,47.764,47.749" transform="translate(-249.966 -683.791)"/><path class="d" d="M208.76,762.561l47.764-47.749L208.76,667.062" transform="translate(-233.652 -683.791)"/><path class="d" d="M189.207,762.561l47.764-47.749-47.764-47.749" transform="translate(-230.37 -683.791)"/></g></g><g transform="translate(137.511 867.714)"><g class="c"><line class="d" x2="62.541" y2="62.522" transform="translate(0.058 0)"/><line class="d" x1="62.541" y2="62.522" transform="translate(0.058)"/><path class="d" d="M143.132,982.071,174.4,950.81l-31.27-31.261" transform="translate(-160.037 -919.549)"/><path class="d" d="M252.635,919.572l-31.27,31.261,31.27,31.261" transform="translate(-173.17 -919.553)"/><path class="d" d="M163.471,899.239l31.27,31.261,31.27-31.261" transform="translate(-163.451 -916.14)"/><path class="d" d="M225.988,1008.71l-31.27-31.261-31.27,31.261" transform="translate(-163.448 -929.268)"/><path class="d" d="M143.651,889.332l47.764,47.749,47.764-47.749" transform="translate(-160.124 -914.477)"/><path class="d" d="M143.651,869.785l47.764,47.749,47.764-47.749" transform="translate(-160.124 -911.196)"/><path class="d" d="M239.178,1014.689,191.414,966.94l-47.764,47.749" transform="translate(-160.124 -927.504)"/><path class="d" d="M239.178,1034.236l-47.764-47.749-47.764,47.749" transform="translate(-160.124 -930.785)"/><path class="d" d="M258.929,899.446l-47.764,47.749,47.764,47.749" transform="translate(-171.457 -916.175)"/><path class="d" d="M278.482,899.446l-47.764,47.749,47.764,47.749" transform="translate(-174.74 -916.175)"/><path class="d" d="M133.534,994.944,181.3,947.195l-47.764-47.749" transform="translate(-158.426 -916.175)"/><path class="d" d="M113.981,994.944l47.764-47.749-47.764-47.749" transform="translate(-155.144 -916.175)"/></g></g><g transform="translate(73.563 738.765)"><line class="d" x2="62.37" transform="translate(0.021 62.58)"/><line class="d" x2="62.58" transform="translate(0 49.816)"/><line class="d" x2="62.58" transform="translate(0 24.908)"/><line class="d" x2="62.58" transform="translate(0 12.454)"/><line class="d" x2="62.58"/><line class="d" x2="62.58" transform="translate(0 37.347)"/><g transform="translate(0 6.382)"><line class="d" x2="62.58" transform="translate(0 49.816)"/><line class="d" x2="62.58" transform="translate(0 24.908)"/><line class="d" x2="62.58" transform="translate(0 12.292)"/><line class="d" x2="62.58"/><line class="d" x2="62.58" transform="translate(0 37.19)"/></g></g><g transform="translate(392.78 674.31)"><line class="d" x2="62.37" transform="translate(0.021 62.58)"/><line class="d" x2="62.58" transform="translate(0 49.816)"/><line class="d" x2="62.58" transform="translate(0 24.908)"/><line class="d" x2="62.58" transform="translate(0 12.454)"/><line class="d" x2="62.58"/><line class="d" x2="62.58" transform="translate(0 37.347)"/><g transform="translate(0 6.382)"><line class="d" x2="62.58" transform="translate(0 49.816)"/><line class="d" x2="62.58" transform="translate(0 24.908)"/><line class="d" x2="62.58" transform="translate(0 12.292)"/><line class="d" x2="62.58"/><line class="d" x2="62.58" transform="translate(0 37.19)"/></g></g><g transform="translate(264.214 805.47)"><line class="d" x2="62.37" transform="translate(0.021 59.014)"/><line class="d" x2="62.58" transform="translate(0 46.978)"/><line class="d" x2="62.58" transform="translate(0 23.489)"/><line class="d" x2="62.58" transform="translate(0 11.744)"/><line class="d" x2="62.58"/><line class="d" x2="62.58" transform="translate(0 35.219)"/><g transform="translate(0 6.018)"><line class="d" x2="62.58" transform="translate(0 46.978)"/><line class="d" x2="62.58" transform="translate(0 23.489)"/><line class="d" x2="62.58" transform="translate(0 11.591)"/><line class="d" x2="62.58"/><line class="d" x2="62.58" transform="translate(0 35.071)"/></g></g><g transform="translate(73.375 803.716)"><g class="e"><path class="d" d="M148.9,934.037l-24.449-24.449a9.633,9.633,0,0,0-13.624,0L86.374,934.037" transform="translate(-86.374 -853.406)"/><path class="d" d="M162.081,939.3l-40.937-40.938a9.633,9.633,0,0,0-13.624,0L66.583,939.3" transform="translate(-83.052 -851.521)"/><path class="d" d="M162.081,928.763l-40.937-40.938a9.634,9.634,0,0,0-13.624,0L66.583,928.763" transform="translate(-83.052 -849.752)"/><path class="d" d="M162.081,918.459l-40.937-40.938a9.635,9.635,0,0,0-13.624,0L66.583,918.459" transform="translate(-83.052 -848.023)"/><path class="d" d="M162.081,908.474l-40.937-40.938a9.633,9.633,0,0,0-13.624,0L66.583,908.474" transform="translate(-83.052 -846.347)"/><path class="d" d="M162.089,898.861l-40.937-40.937a9.634,9.634,0,0,0-13.624,0L66.591,898.861" transform="translate(-83.053 -844.733)"/><path class="d" d="M162.089,890.481l-40.937-40.938a9.635,9.635,0,0,0-13.624,0L66.591,890.481" transform="translate(-83.053 -843.327)"/><path class="d" d="M162.081,881.445l-40.937-40.937a9.633,9.633,0,0,0-13.624,0L66.583,881.445" transform="translate(-83.052 -841.81)"/><path class="d" d="M162.081,872.385l-40.937-40.938a9.634,9.634,0,0,0-13.624,0L66.583,872.385" transform="translate(-83.052 -840.289)"/><path class="d" d="M162.081,861.891l-40.937-40.937a9.633,9.633,0,0,0-13.624,0L66.583,861.891" transform="translate(-83.052 -838.527)"/><path class="d" d="M162.081,960.279l-40.937-40.938a9.634,9.634,0,0,0-13.624,0L66.583,960.279" transform="translate(-83.052 -855.043)"/></g></g><g transform="translate(137.521 738.794)"><g class="e"><path class="d" d="M225.981,856.018l-24.449-24.449a9.633,9.633,0,0,0-13.624,0l-24.449,24.449" transform="translate(-163.459 -775.387)"/><path class="d" d="M239.166,861.283l-40.937-40.937a9.633,9.633,0,0,0-13.624,0l-40.937,40.937" transform="translate(-160.137 -773.503)"/><path class="d" d="M239.166,850.744l-40.937-40.937a9.633,9.633,0,0,0-13.624,0l-40.937,40.937" transform="translate(-160.137 -771.734)"/><path class="d" d="M239.166,840.44,198.229,799.5a9.633,9.633,0,0,0-13.624,0L143.668,840.44" transform="translate(-160.137 -770.004)"/><path class="d" d="M239.166,830.455l-40.937-40.937a9.633,9.633,0,0,0-13.624,0l-40.937,40.937" transform="translate(-160.137 -768.328)"/><path class="d" d="M239.174,820.843,198.237,779.9a9.632,9.632,0,0,0-13.623,0l-40.938,40.938" transform="translate(-160.138 -766.714)"/><path class="d" d="M239.174,812.462l-40.937-40.937a9.633,9.633,0,0,0-13.623,0l-40.938,40.937" transform="translate(-160.138 -765.308)"/><path class="d" d="M239.166,803.426l-40.937-40.937a9.633,9.633,0,0,0-13.624,0l-40.937,40.937" transform="translate(-160.137 -763.791)"/><path class="d" d="M239.166,794.366l-40.937-40.937a9.633,9.633,0,0,0-13.624,0l-40.937,40.937" transform="translate(-160.137 -762.27)"/><path class="d" d="M239.166,783.872l-40.937-40.937a9.633,9.633,0,0,0-13.624,0l-40.937,40.937" transform="translate(-160.137 -760.509)"/><path class="d" d="M239.166,882.26l-40.937-40.938a9.635,9.635,0,0,0-13.624,0L143.668,882.26" transform="translate(-160.137 -777.024)"/></g></g><g transform="translate(327.848 930.236)"><g class="e"><path class="d" d="M454.7,1086.079l-24.449-24.45a9.635,9.635,0,0,0-13.624,0l-24.449,24.45" transform="translate(-392.179 -1005.447)"/><path class="d" d="M467.886,1091.343l-40.937-40.937a9.634,9.634,0,0,0-13.624,0l-40.937,40.937" transform="translate(-388.857 -1003.563)"/><path class="d" d="M467.886,1080.8l-40.937-40.937a9.634,9.634,0,0,0-13.624,0L372.388,1080.8" transform="translate(-388.857 -1001.794)"/><path class="d" d="M467.886,1070.5l-40.937-40.937a9.634,9.634,0,0,0-13.624,0L372.388,1070.5" transform="translate(-388.857 -1000.064)"/><path class="d" d="M467.886,1060.515l-40.937-40.937a9.634,9.634,0,0,0-13.624,0l-40.937,40.937" transform="translate(-388.857 -998.388)"/><path class="d" d="M467.894,1050.9l-40.937-40.937a9.634,9.634,0,0,0-13.624,0L372.4,1050.9" transform="translate(-388.858 -996.775)"/><path class="d" d="M467.894,1042.522l-40.937-40.937a9.634,9.634,0,0,0-13.624,0L372.4,1042.522" transform="translate(-388.858 -995.368)"/><path class="d" d="M467.886,1033.486l-40.937-40.937a9.634,9.634,0,0,0-13.624,0l-40.937,40.937" transform="translate(-388.857 -993.851)"/><path class="d" d="M467.886,1024.426l-40.937-40.937a9.634,9.634,0,0,0-13.624,0l-40.937,40.937" transform="translate(-388.857 -992.33)"/><path class="d" d="M467.886,1013.932l-40.937-40.937a9.633,9.633,0,0,0-13.624,0l-40.937,40.937" transform="translate(-388.857 -990.569)"/><path class="d" d="M467.886,1112.32l-40.937-40.937a9.633,9.633,0,0,0-13.624,0l-40.937,40.937" transform="translate(-388.857 -1007.084)"/></g></g><g transform="translate(327.848 738.794)"><g class="e"><path class="d" d="M454.7,856.018l-24.449-24.449a9.633,9.633,0,0,0-13.624,0l-24.449,24.449" transform="translate(-392.179 -775.387)"/><path class="d" d="M467.886,861.283l-40.937-40.937a9.634,9.634,0,0,0-13.624,0l-40.937,40.937" transform="translate(-388.857 -773.503)"/><path class="d" d="M467.886,850.744l-40.937-40.937a9.634,9.634,0,0,0-13.624,0l-40.937,40.937" transform="translate(-388.857 -771.734)"/><path class="d" d="M467.886,840.44,426.949,799.5a9.633,9.633,0,0,0-13.624,0L372.388,840.44" transform="translate(-388.857 -770.004)"/><path class="d" d="M467.886,830.455l-40.937-40.937a9.633,9.633,0,0,0-13.624,0l-40.937,40.937" transform="translate(-388.857 -768.328)"/><path class="d" d="M467.894,820.843,426.957,779.9a9.633,9.633,0,0,0-13.624,0L372.4,820.843" transform="translate(-388.858 -766.714)"/><path class="d" d="M467.894,812.462l-40.937-40.937a9.634,9.634,0,0,0-13.624,0L372.4,812.462" transform="translate(-388.858 -765.308)"/><path class="d" d="M467.886,803.426l-40.937-40.937a9.634,9.634,0,0,0-13.624,0l-40.937,40.937" transform="translate(-388.857 -763.791)"/><path class="d" d="M467.886,794.366l-40.937-40.937a9.634,9.634,0,0,0-13.624,0l-40.937,40.937" transform="translate(-388.857 -762.27)"/><path class="d" d="M467.886,783.872l-40.937-40.937a9.633,9.633,0,0,0-13.624,0l-40.937,40.937" transform="translate(-388.857 -760.509)"/><path class="d" d="M467.886,882.26l-40.937-40.938a9.635,9.635,0,0,0-13.624,0L372.388,882.26" transform="translate(-388.857 -777.024)"/></g></g><g transform="translate(8.936 673.806)"><path class="d" d="M8.936,686.526v57.25a5.329,5.329,0,0,0,5.329,5.329h57.25" transform="translate(-8.936 -686.526)"/><path class="d" d="M24.274,686.526v46.483a3.333,3.333,0,0,0,3.333,3.333H74.09" transform="translate(-11.511 -686.526)"/><path class="d" d="M39.259,686.526V720.54a3.333,3.333,0,0,0,3.333,3.333H76.605" transform="translate(-14.026 -686.526)"/><path class="d" d="M54.207,686.526V708.1a3.332,3.332,0,0,0,3.332,3.333H79.115" transform="translate(-16.535 -686.526)"/><path class="d" d="M69.173,686.526v9.121a3.333,3.333,0,0,0,3.333,3.333h9.121" transform="translate(-19.047 -686.526)"/><path class="d" d="M76.656,686.526v2.894a3.333,3.333,0,0,0,3.333,3.333h2.894" transform="translate(-20.303 -686.526)"/><path class="d" d="M61.7,686.526v15.341a3.333,3.333,0,0,0,3.333,3.333h15.34" transform="translate(-17.793 -686.526)"/><path class="d" d="M46.538,686.526v27.957a3.333,3.333,0,0,0,3.333,3.333H77.827" transform="translate(-15.248 -686.526)"/><path class="d" d="M31.779,686.526v40.238a3.333,3.333,0,0,0,3.333,3.333H75.35" transform="translate(-12.77 -686.526)"/><path class="d" d="M16.63,686.526V739.37a3.333,3.333,0,0,0,3.333,3.333H72.807" transform="translate(-10.228 -686.526)"/></g><g transform="translate(328.569 804.276)"><path class="d" d="M393.046,843.314v57.25a5.329,5.329,0,0,0,5.329,5.329h57.25" transform="translate(-393.046 -843.314)"/><path class="d" d="M408.384,843.314V889.8a3.332,3.332,0,0,0,3.332,3.333H458.2" transform="translate(-395.621 -843.314)"/><path class="d" d="M423.369,843.314v34.014a3.333,3.333,0,0,0,3.333,3.333h34.014" transform="translate(-398.136 -843.314)"/><path class="d" d="M438.316,843.314v21.575a3.333,3.333,0,0,0,3.333,3.333h21.576" transform="translate(-400.645 -843.314)"/><path class="d" d="M453.283,843.314v9.121a3.333,3.333,0,0,0,3.333,3.333h9.121" transform="translate(-403.157 -843.314)"/><path class="d" d="M460.766,843.314v2.894a3.333,3.333,0,0,0,3.333,3.333h2.894" transform="translate(-404.413 -843.314)"/><path class="d" d="M445.809,843.314v15.341a3.333,3.333,0,0,0,3.333,3.333h15.34" transform="translate(-401.903 -843.314)"/><path class="d" d="M430.647,843.314v27.957a3.333,3.333,0,0,0,3.333,3.333h27.957" transform="translate(-399.358 -843.314)"/><path class="d" d="M415.888,843.314v40.238a3.333,3.333,0,0,0,3.333,3.333H459.46" transform="translate(-396.88 -843.314)"/><path class="d" d="M400.739,843.314v52.844a3.333,3.333,0,0,0,3.333,3.333h52.845" transform="translate(-394.337 -843.314)"/></g><g transform="translate(264.214 610.75)"><path class="d" d="M315.709,610.75V668a5.329,5.329,0,0,0,5.328,5.329h57.251" transform="translate(-315.709 -610.75)"/><path class="d" d="M331.046,610.75v46.483a3.333,3.333,0,0,0,3.333,3.333h46.484" transform="translate(-318.283 -610.75)"/><path class="d" d="M346.032,610.75v34.014a3.332,3.332,0,0,0,3.332,3.333h34.015" transform="translate(-320.799 -610.75)"/><path class="d" d="M360.979,610.75v21.576a3.333,3.333,0,0,0,3.333,3.333h21.576" transform="translate(-323.308 -610.75)"/><path class="d" d="M375.945,610.75v9.121a3.333,3.333,0,0,0,3.333,3.333H388.4" transform="translate(-325.82 -610.75)"/><path class="d" d="M383.429,610.75v2.894a3.332,3.332,0,0,0,3.332,3.333h2.895" transform="translate(-327.076 -610.75)"/><path class="d" d="M368.472,610.75v15.34a3.333,3.333,0,0,0,3.333,3.333h15.34" transform="translate(-324.566 -610.75)"/><path class="d" d="M353.31,610.75v27.957a3.332,3.332,0,0,0,3.333,3.332H384.6" transform="translate(-322.021 -610.75)"/><path class="d" d="M338.551,610.75v40.238a3.333,3.333,0,0,0,3.333,3.333h40.239" transform="translate(-319.543 -610.75)"/><path class="d" d="M323.4,610.75V663.6a3.332,3.332,0,0,0,3.333,3.332H379.58" transform="translate(-317 -610.75)"/></g><g transform="translate(200.119 931.17)"><path class="d" d="M238.685,995.806v57.25a5.329,5.329,0,0,0,5.329,5.329h57.25" transform="translate(-238.685 -995.806)"/><path class="d" d="M254.023,995.806v46.483a3.333,3.333,0,0,0,3.333,3.333h46.483" transform="translate(-241.26 -995.806)"/><path class="d" d="M269.008,995.806v34.014a3.333,3.333,0,0,0,3.333,3.333h34.014" transform="translate(-243.775 -995.806)"/><path class="d" d="M283.955,995.806v21.576a3.334,3.334,0,0,0,3.333,3.333h21.576" transform="translate(-246.284 -995.806)"/><path class="d" d="M298.922,995.806v9.121a3.333,3.333,0,0,0,3.333,3.333h9.121" transform="translate(-248.796 -995.806)"/><path class="d" d="M306.4,995.806V998.7a3.333,3.333,0,0,0,3.333,3.333h2.894" transform="translate(-250.052 -995.806)"/><path class="d" d="M291.448,995.806v15.341a3.333,3.333,0,0,0,3.333,3.333h15.341" transform="translate(-247.542 -995.806)"/><path class="d" d="M276.287,995.806v27.957a3.332,3.332,0,0,0,3.332,3.332h27.957" transform="translate(-244.997 -995.806)"/><path class="d" d="M261.528,995.806v40.238a3.333,3.333,0,0,0,3.333,3.333H305.1" transform="translate(-242.519 -995.806)"/><path class="d" d="M246.379,995.806v52.845a3.332,3.332,0,0,0,3.332,3.332h52.845" transform="translate(-239.977 -995.806)"/></g></g></svg>