<svg xmlns="http://www.w3.org/2000/svg" width="76.761" height="74.513" viewBox="0 0 76.761 74.513"><defs><style>.a{fill:#2b2b2b;}</style></defs><g transform="translate(-1182 -1764.887)"><path class="a" d="M1239.49,1789.3a5.139,5.139,0,1,1,5.139-5.139A5.138,5.138,0,0,1,1239.49,1789.3Zm0-12.847a7.708,7.708,0,1,0,7.709,7.708A7.708,7.708,0,0,0,1239.49,1776.45Z"/><path class="a" d="M1220.064,1804.558l1.505-1.506-1.817-1.817-1.505,1.506a19.04,19.04,0,0,0-3.733,5.273l2.319,1.107A16.477,16.477,0,0,1,1220.064,1804.558Z"/><path class="a" d="M1212.847,1813.523l2.543.367a16.789,16.789,0,0,1,.524-2.386l-2.461-.735A19.074,19.074,0,0,0,1212.847,1813.523Z"/><path class="a" d="M1249.644,1786.32a49.867,49.867,0,0,1-18.8,11.781l-5.294-5.293a49.859,49.859,0,0,1,11.782-18.8,22.318,22.318,0,0,1,7.448-4.937,10.959,10.959,0,0,0,3.087,6.011l.706.706a10.97,10.97,0,0,0,6.011,3.088A22.313,22.313,0,0,1,1249.644,1786.32Zm-8.869,12.943a11.776,11.776,0,0,1-2.618,7.439l-3.8-3.805v-3.38a52.347,52.347,0,0,0,6.423-3.167Zm-18.738-2.258,2.037-2.037,4.607,4.607-2.038,2.037Zm-1.285-7.708-3.806-3.806a11.791,11.791,0,0,1,7.44-2.618h2.913a52.444,52.444,0,0,0-3.168,6.424Zm35.44-21.84v3.055a22.5,22.5,0,0,1-.779,5.881,8.412,8.412,0,0,1-5.026-2.426l-.706-.706a8.409,8.409,0,0,1-2.426-5.026,22.467,22.467,0,0,1,5.882-.778Zm1.284-2.57h-4.339a24.763,24.763,0,0,0-17.625,7.3,52.1,52.1,0,0,0-6.619,8.116h-4.507a14.351,14.351,0,0,0-10.214,4.23,1.286,1.286,0,0,0,0,1.817l5.139,5.139a1.285,1.285,0,0,0,.909.376h2.935q-.1.3-.2.591l-3.64,3.64a136.889,136.889,0,0,0-15.63,18.713,10.272,10.272,0,0,0-15.558,2.884,6.428,6.428,0,0,0-6.123,2.041l1.926,1.7a3.858,3.858,0,0,1,2.891-1.305c.108,0,.216.005.322.014a10.289,10.289,0,0,0-.322,2.555h2.57a7.706,7.706,0,0,1,12.838-5.75q-.618.929-1.223,1.865l-.229.357a10.438,10.438,0,0,1-8.817,4.813v2.569a13,13,0,0,0,10.978-5.992l.229-.357a134.213,134.213,0,0,1,17.063-21.376l4.6,4.6-2.945,2.946a14,14,0,0,0,0,19.8l1.817-1.817a11.341,11.341,0,0,1-3.2-6.259,5.139,5.139,0,0,1,7.339,3.624,11.452,11.452,0,0,0-1.673.53l.964,2.382a9,9,0,0,1,12.365,8.34h2.57a11.575,11.575,0,0,0-11.563-11.562l-.108,0a7.711,7.711,0,0,0-10-6.043,11.353,11.353,0,0,1,3.311-7.183l7.494-7.494q.3-.1.59-.2v2.935a1.283,1.283,0,0,0,.376.908l5.139,5.139a1.284,1.284,0,0,0,1.817,0,14.349,14.349,0,0,0,4.231-10.213v-4.508a52.13,52.13,0,0,0,8.116-6.619,24.763,24.763,0,0,0,7.3-17.624v-4.34a1.285,1.285,0,0,0-1.285-1.285Z"/><path class="a" d="M1190.7,1832.145a7.707,7.707,0,0,0-7.226,1.089l1.543,2.055a5.139,5.139,0,0,1,8.222,4.111h2.569a7.7,7.7,0,0,0-2.866-5.991,6.426,6.426,0,0,1,8.646-2.143l1.287-2.224a9,9,0,0,0-12.175,3.1Z"/><path class="a" d="M1215.081,1826.553a8.982,8.982,0,0,0-6,2.291l1.714,1.914a6.426,6.426,0,0,1,10.34,6.93l2.423.856a9,9,0,0,0-8.481-11.991Z"/></g></svg>