<svg xmlns="http://www.w3.org/2000/svg" width="74.113" height="74.113" viewBox="0 0 74.113 74.113"><defs><style>.a{fill:#2b2b2b;}</style></defs><g transform="translate(-1500 -1764.887)"><path class="a" d="M1507.172,1788.794a16.619,16.619,0,0,1,1.721-7.346l1.02,1.02a2.9,2.9,0,0,1,.845,2.04v.206a5.236,5.236,0,0,0,1.546,3.73l1.2,1.2a2.906,2.906,0,0,1,.845,2.04v1.4a2.908,2.908,0,0,1-.845,2.041,5.236,5.236,0,0,0-1.545,3.731v1.631a16.669,16.669,0,0,1-4.782-11.689Zm15.54-16.673v1.278a3.71,3.71,0,0,0,1.092,2.639l.907.906a1.335,1.335,0,0,1,.392.948,3.735,3.735,0,0,0,3.73,3.731h1.2a1.334,1.334,0,0,1,.948.392l2.1,2.1a3.706,3.706,0,0,0,2.638,1.092h4.529a16.7,16.7,0,0,1,.4,3.586c0,.405-.032.8-.061,1.2h-2.125a4.544,4.544,0,0,0-3.236,1.341l-.41.41a2.167,2.167,0,0,1-1.544.64,4.581,4.581,0,0,0-4.577,4.577,2.168,2.168,0,0,1-.641,1.545l-1.6,1.606a4.541,4.541,0,0,0-1.34,3.234v2.126c-.4.029-.792.061-1.2.061a16.632,16.632,0,0,1-9.563-3.021v-3.656a2.911,2.911,0,0,1,.845-2.041,5.24,5.24,0,0,0,1.546-3.731v-1.4a5.24,5.24,0,0,0-1.546-3.731l-1.195-1.195a2.906,2.906,0,0,1-.845-2.04v-.206a5.241,5.241,0,0,0-1.546-3.731l-1.468-1.468a16.719,16.719,0,0,1,12.577-7.188Zm16.808,10.7h-3.8a1.338,1.338,0,0,1-.948-.392l-2.1-2.1a3.706,3.706,0,0,0-2.638-1.092h-1.2a1.343,1.343,0,0,1-1.34-1.34,3.71,3.71,0,0,0-1.092-2.639l-.906-.906a1.335,1.335,0,0,1-.392-.948v-1.278a16.742,16.742,0,0,1,14.417,10.7Zm-12.027,22.315v-1.79a2.168,2.168,0,0,1,.641-1.545l1.606-1.606a4.544,4.544,0,0,0,1.339-3.234,2.189,2.189,0,0,1,2.187-2.187,4.544,4.544,0,0,0,3.236-1.341l.41-.41a2.17,2.17,0,0,1,1.544-.639h1.789a16.773,16.773,0,0,1-12.752,12.752Zm15.54-16.339a19.126,19.126,0,1,0-19.126,19.126A19.148,19.148,0,0,0,1543.033,1788.794Z"/><path class="a" d="M1538.252,1827.046h2.39v2.391h-2.39Zm9.563-4.781h2.39v7.172h-2.39Zm9.562-4.782h2.391v11.954h-2.391Zm9.563-4.781h2.391v16.735h-2.391Zm-44.228-.061c.4.02.791.061,1.195.061s.8-.041,1.2-.061v2.452h-2.391Zm-20.321-23.847a21.516,21.516,0,1,1,21.516,21.517A21.541,21.541,0,0,1,1502.391,1788.794Zm69.331,22.713a1.2,1.2,0,0,0-1.2-1.2h-4.781a1.2,1.2,0,0,0-1.195,1.2v17.93h-2.391v-13.149a1.2,1.2,0,0,0-1.2-1.195h-4.782a1.2,1.2,0,0,0-1.195,1.195v13.149H1552.6v-8.368a1.2,1.2,0,0,0-1.195-1.195h-4.782a1.2,1.2,0,0,0-1.2,1.195v8.368h-2.391v-3.586a1.2,1.2,0,0,0-1.195-1.195h-4.782a1.2,1.2,0,0,0-1.2,1.195v3.586h-5.977v-13.149a1.2,1.2,0,0,0-1.2-1.195h-1.2v-2.69a23.907,23.907,0,1,0-7.172,0v2.69h-1.2a1.2,1.2,0,0,0-1.2,1.195v21.517a1.2,1.2,0,0,0,1.2,1.195h9.563a1.2,1.2,0,0,0,1.2-1.195v-3.586h-2.391v2.39h-7.172v-19.126h7.172v13.149a1.2,1.2,0,0,0,1.2,1.2h45.424v-2.391h-2.391Z"/><path class="a" d="M1562.159,1788.89v1.32a3.582,3.582,0,0,0-2.391,3.366v1.195a3.59,3.59,0,0,0,3.586,3.586,1.2,1.2,0,0,1,1.2,1.2v1.2a1.2,1.2,0,1,1-2.391,0v-1.2h-2.391v1.2a3.58,3.58,0,0,0,2.391,3.366v1.32a8.356,8.356,0,0,1,0-16.544Zm9.563,8.272a8.373,8.373,0,0,1-7.172,8.272v-1.32a3.579,3.579,0,0,0,2.39-3.366v-1.2a3.59,3.59,0,0,0-3.586-3.586,1.2,1.2,0,0,1-1.195-1.2v-1.195a1.2,1.2,0,0,1,2.391,0v1.195h2.39v-1.195a3.581,3.581,0,0,0-2.39-3.366v-1.32A8.375,8.375,0,0,1,1571.722,1797.162Zm-8.368,10.758a10.758,10.758,0,1,0-10.758-10.758A10.771,10.771,0,0,0,1563.354,1807.92Z"/></g></svg>